<svg xmlns="http://www.w3.org/2000/svg" xmlns:xlink="http://www.w3.org/1999/xlink" width="512.027" height="512" viewBox="0 0 512.027 512"><defs><clipPath id="a"><path d="M2242.4,1296.866c3.3,3.465,128.79-53.133,128.76-24.869l2.438,409.71s21.654,10.461,39.843,10.461,43.925-12.755,43.925-12.755L2455.718,1272c.451-25.895,113.631,30.344,119.686,26.325s13.117-88.649-7.971-94.273c0,0-70.7-23.473-153.995-23.878s-164.314,26.276-164.314,26.276C2239.561,1209,2239.1,1293.4,2242.4,1296.866Z" transform="translate(-2240.545 -1180.167)" fill="none" stroke="#707070" stroke-linejoin="round" stroke-width="0.5"/></clipPath></defs><g transform="translate(0.107 -141.494)"><g transform="translate(0 174.972)"><path d="M2303.684,1184.286s-17.849,106.467,12.445,125.013,106.553,38.1,106.553,38.1v68.316s-174.05-33.268-181.282-45.794-14.7-142.827-11.569-151.824S2303.684,1184.286,2303.684,1184.286Z" transform="translate(-2229.096 -1183.997)" fill="#ebebeb" stroke="rgba(112,112,112,0.12)" stroke-linejoin="round" stroke-width="0.2"/><path d="M2303.911,1185.251c7.877,30.954,10.755,77.372-21.979,150.535,0,0,2.479,8.05,35.4,21.219s47.922,11.341,47.922,11.341c3.658-12.073,10.463-60.214,12.364-89.408s1.02-28.175,0-58.98C2377.3,1210.3,2303.911,1185.251,2303.911,1185.251Z" transform="translate(-1866.742 -1185.251)" fill="#ebebeb" stroke="rgba(112,112,112,0.12)" stroke-linejoin="round" stroke-width="0.2"/><path d="M2269.285,1209.594l173.052,44.91c-25.987,99.741-79.253,185.82-173.052,239.559v-89.469c72.823-40.973,82.27-105.579,82.27-105.579l-82.27-19.66Z" transform="translate(-1949.578 -1036.988)" fill="#ebebeb" stroke="rgba(112,112,112,0.12)" stroke-linejoin="round" stroke-width="0.2"/><path d="M2407.244,1348.132v90.73c-45.9-23.957-142.541-73.573-174.688-221.334l90.465,22.984C2319.619,1314.269,2407.244,1348.132,2407.244,1348.132Z" transform="translate(-2212.393 -979.883)" fill="#ebebeb" stroke="rgba(112,112,112,0.12)" stroke-linejoin="round" stroke-width="0.2"/></g><g transform="translate(84.896 141.494)" clip-path="url(#a)"><g transform="translate(-39.015 -45.167)" fill="#e05858" stroke="#707070" stroke-width="1"><rect width="534.059" height="582" stroke="none"/><rect x="0.5" y="0.5" width="533.059" height="581" fill="none"/></g><g transform="translate(-38.526 -54.073)"><path d="M2564.76,1206.9l-59.351-33.233-92.16,76.978,136.039,27.846Z" transform="translate(-2303.377 -1172.621)" fill="#3bdeff"/><path d="M2461.177,1220.984l38.464,230.724-77.759-7.129Z" transform="translate(-2241.254 -833.843)" fill="#28ccff"/><path d="M2427.5,1317.269l99.068,31.315,1.59-111.686-109.315-31.028Z" transform="translate(-2263.114 -942.064)" fill="#89ebfb"/><path d="M2519.01,1316.219l-40.91-48.7-59.1-25.21,3.682-40.51,156.937,45.681Z" transform="translate(-2261.973 -971.18)" fill="#28ccff"/><path d="M2523.143,1311.523l-110.4-115.925,297.756,39.888Z" transform="translate(-2307.017 -1015.61)" fill="#3bdeff"/><path d="M2424.189,1295.991l56.757-53.319-61.475-23.918Z" transform="translate(-2258.588 -849.817)" fill="#42dcfc"/><path d="M2448.3,1441.03l25.816-152.082,11.234-62.539-.989-4.91-65.8,65.923V1441.03Z" transform="translate(-2265.099 -830.152)" fill="#89ebfb"/><path d="M2448.736,1361.921l16.989-15.082,4.991-111.717-44.121-13.588Z" transform="translate(-2207.322 -829.91)" fill="#42dcfc"/><path d="M2442.607,1337.74h32.34l-29.008-100.87-16.668,15.3Z" transform="translate(-2188.056 -720.105)" fill="#00b9ff"/><path d="M2429.356,1237.919l16.993-59.047,266.462,20.309-67.97,163.7Z" transform="translate(-2187.443 -1135.363)" fill="#20c5f8"/><path d="M2429.955,1297.642l87.238-45.938,90.028-78.163L2399.846,1184.2Z" transform="translate(-2399.846 -1173.54)" fill="#89ebfb"/><path d="M2438.407,1183.12l126.072,24.089-153.649,76.471Z" transform="translate(-2320.781 -1104.957)" fill="#28c4ff"/><path d="M2410.816,1262.506l153.473-76.493L2787.3,1315.078Z" transform="translate(-2320.892 -1084.242)" fill="#89ebfb"/><path d="M2403.344,1236.013l4.244,80.125H2461.6l41.367-134.187Z" transform="translate(-2374.665 -1113.323)" fill="#3bdeff"/></g></g></g></svg>