<svg xmlns="http://www.w3.org/2000/svg" xmlns:xlink="http://www.w3.org/1999/xlink" width="512" height="512" viewBox="0 0 512 512"><defs><clipPath id="a"><rect width="512" height="512" transform="translate(2619 917)" fill="#fff" stroke="#707070" stroke-width="1"/></clipPath><clipPath id="b"><path d="M2241.74,1255.458c2.128,2.235,83.082-34.28,83.062-16.045l1.573,264.332s13.969,6.749,25.7,6.749,28.336-8.229,28.336-8.229l-1.062-262.852c.291-16.706,73.3,19.577,77.209,16.984s8.462-57.193-5.142-60.822c0,0-45.609-15.144-99.342-15.405s-106,16.952-106,16.952C2239.91,1198.767,2239.612,1253.222,2241.74,1255.458Z" transform="translate(-2240.545 -1180.167)" fill="none" stroke="#707070" stroke-linejoin="round" stroke-width="0.5"/></clipPath></defs><g transform="translate(-2619 -917)" clip-path="url(#a)"><g transform="translate(2670.57 885.235)"><g transform="translate(0 192.282)"><path d="M2277.212,1184.286s-11.514,68.682,8.028,80.646,68.737,24.58,68.737,24.58v44.07s-112.279-21.461-116.945-29.542-9.485-92.138-7.463-97.941S2277.212,1184.286,2277.212,1184.286Z" transform="translate(-2229.096 -1184.099)" fill="#ebebeb" stroke="rgba(112,112,112,0.12)" stroke-linejoin="round" stroke-width="0.2"/><path d="M2296.111,1185.251c5.082,19.969,6.938,49.913-14.179,97.11,0,0,1.6,5.193,22.839,13.688s30.914,7.316,30.914,7.316c2.36-7.788,6.75-38.844,7.976-57.677s.658-18.176,0-38.048C2343.455,1201.41,2296.111,1185.251,2296.111,1185.251Z" transform="translate(-2014.057 -1185.251)" fill="#ebebeb" stroke="rgba(112,112,112,0.12)" stroke-linejoin="round" stroke-width="0.2"/><path d="M2269.285,1209.594l111.635,28.971c-16.764,64.343-51.126,119.872-111.635,154.539v-57.717c46.977-26.431,53.072-68.108,53.072-68.108l-53.072-12.683Z" transform="translate(-2063.006 -1098.21)" fill="#ebebeb" stroke="rgba(112,112,112,0.12)" stroke-linejoin="round" stroke-width="0.2"/><path d="M2345.247,1301.781v58.53c-29.613-15.455-91.953-47.462-112.691-142.782l58.359,14.827C2288.72,1279.936,2345.247,1301.781,2345.247,1301.781Z" transform="translate(-2219.549 -1064.188)" fill="#ebebeb" stroke="rgba(112,112,112,0.12)" stroke-linejoin="round" stroke-width="0.2"/></g><g transform="translate(54.784 170.685)" clip-path="url(#b)"><g transform="translate(-25.168 -29.14)" fill="#e05858" stroke="#707070" stroke-width="1"><rect width="344.52" height="375.488" stroke="none"/><rect x="0.5" y="0.5" width="343.52" height="374.488" fill="none"/></g><g transform="translate(-24.853 -34.886)"><path d="M2510.989,1195.109l-38.287-21.441-59.453,49.664,87.758,17.966Z" transform="translate(-2342.37 -1172.993)" fill="#ff3b3b"/><path d="M2447.23,1220.985l24.813,148.856-50.162-4.6Z" transform="translate(-2305.359 -971.213)" fill="#ff2828"/><path d="M2424.429,1277.741l63.908,20.2,1.025-72.056-70.519-20.019Z" transform="translate(-2318.383 -1035.67)" fill="#e05858"/><path d="M2483.517,1275.621l-26.392-31.417L2419,1227.939l2.375-26.136,101.239,29.472Z" transform="translate(-2317.703 -1053.012)" fill="#ff2828"/><path d="M2483.961,1270.389l-71.218-74.791,192.082,25.734Z" transform="translate(-2344.54 -1079.476)" fill="#ff3b3b"/><path d="M2422.515,1268.584l36.614-34.4-39.657-15.431Z" transform="translate(-2315.687 -980.727)" fill="#ff6262"/><path d="M2437.75,1363.134l16.654-98.118,7.247-40.348-.638-3.168-42.446,42.532v99.1Z" transform="translate(-2319.565 -969.015)" fill="#e05858"/><path d="M2440.877,1312.107l10.959-9.73,3.22-72.077-28.462-8.767Z" transform="translate(-2285.142 -968.87)" fill="#ff3b3b"/><path d="M2437.874,1301.948h20.862l-18.713-65.078-10.752,9.869Z" transform="translate(-2273.664 -903.469)" fill="#ff5353"/><path d="M2429.357,1216.968l10.962-38.1,171.894,13.1-43.847,105.616Z" transform="translate(-2273.299 -1150.802)" fill="#ff2828"/><path d="M2419.27,1253.607l56.277-29.638,58.077-50.428-133.776,6.874Z" transform="translate(-2399.846 -1173.541)" fill="#e05858"/><path d="M2428.62,1183.119l81.329,15.542L2410.831,1248Z" transform="translate(-2352.74 -1132.691)" fill="#ff2828"/><path d="M2410.816,1235.364l99.005-49.351,143.862,83.269Z" transform="translate(-2352.806 -1120.354)" fill="#e05858"/><path d="M2403.344,1216.83l2.738,51.694h34.84l26.686-86.573Z" transform="translate(-2384.844 -1137.674)" fill="#ff3535"/></g></g><g transform="matrix(0.891, 0.454, -0.454, 0.891, 205.333, 0)"><path d="M0,115.634S16.816,49.92,84.089,22.389c0,0,26.5-38.225,109.059-14.782,0,0,24.465,16.31,28.542,25.476,0,0,36.181,6.121,36.181,47.908,0,0,7.133,10.7,5.1,37.2l5.605,56.568-27.015,20.893-1.528-10.189S214.041,146.22,212.514,134c0,0-7.133-5.605-7.133,8.155l7.133,21.4L14.266,148.192Z" transform="translate(34.749 0)" fill="#e14b4b"/><g transform="translate(140.102 10.693)"><path d="M25.445,74.86A372.423,372.423,0,0,0,0,0C5.2,3.726,13.822,10.209,19.324,16.021A345.186,345.186,0,0,1,25.445,74.86Z" transform="translate(92.285 0)" fill="#d03f3e"/><path d="M0,.011A8.318,8.318,0,0,1,5.936,2.272C3.985,1.477,1.961.744,0,.011Z" transform="translate(42.684 18.456)" fill="#d03f3e"/><path d="M107.088,102.5c-.733-.5-6.968-4.707-7.03,8.072-2.756-3.665-5.079-7.825-7.711-11.561C85.007,88.5,74.365,80.734,63.97,73.147,44.088,58.654,23.608,43.913,0,36.945c11.623-.609,22.937,3.551,33.755,7.763,21.409,8.32,43.479,17.92,57.611,35.964C91.3,68.563,84.822,57.549,78.525,47.216Q66.138,26.855,53.75,6.483A25.456,25.456,0,0,0,48.61,0c9.177,3.489,18.044,7.763,24.95,14.617,9.177,9.115,13.76,21.709,17.8,34C97.178,66.365,102.443,84.4,107.088,102.5Z" transform="translate(0 20.728)" fill="#d03f3e"/></g><g transform="translate(0 113.334)"><path d="M.219,70.615c0-7.959-.072,1.177-.145-2.157-.289,8.95-.1-40.362,7.515-45.564,5.45-5.481,10.436-22.1,14.8-15.732,3.726-3.107,6.328,1.476,8.423-4.005,2.1-1.094,3.685-6.039,5.378-.774,1.693-1.218,3.5,3.561,6.028,2.1,2.529,3.778,5.77,1.466,10.364,4.594,0,3.582,1.7-4.3,4.274-.5,2.581,3.283,6.028.681,9.538-1.435,3.51-3.675,7.081-5.75,9.879-2.281,2.106,2.467,5.037,3.086,8.268-.526,3.221-2.994,6.741-1.93,9.982,1.435,3.252,4.521,6.235,4.862,8.413,1.941,2.178,3.2,3.53-1.043,3.53.97,0,.145.826,3.076,2.312-.093,1.486-.815,3.613,1.662,6.225-.145,2.612,3.768,5.7-.671,9.074.01,3.386-3.427,7.061-6.194,10.859.361,3.8-2.849,7.711-1.92,11.572.919,3.861-1.228,7.659-.32,11.231,1.683,3.561-.815,6.9,5.037,9.807,2.632,2.921-2.849,5.419-5.357,7.329,3.8,0-1.9.9,2.622,2.508.6,1.61,1.012,3.923-.981,6.751,1.683,2.828-.217,6.163,1.29,9.827,2.591,3.654-3.923,7.628,2.6,11.727,3.345,4.1,2.1,8.32,7.143,12.46,3.912,4.15-4.036,8.217,1.972,12.026,4.315,3.809,7.3,7.35,1.652,10.426,4.552,3.076,1.517,5.7.506,7.649,4.614a54.82,54.82,0,0,0,1.951,5.688c.537.826,1.125,7.1,1.693,6.648,2.3,6.2,3.644,34.034-.2,45,0-.031-.454-1.92-1.383,1.61-.929.64-2.333-1.425-4.212,3.417-1.879,2.632-4.253,1.115-7.112,3.066-2.859,4.821-6.225,2.7-10.085.568a29.834,29.834,0,0,0-13.13-4.077c0-4.883-.289-1.507-.846-.289-.557,2.56-1.394-2.446-2.488-.805-1.094-6.235-2.446.692-4.036-1.239-1.6-1.7-3.437.072-5.512-1.569-2.075,5.11-4.377-2.054-6.9-1.817-2.519-3.675-5.265-6.586-8.207-1.982-2.942.506-6.09-5.8-9.425-2.044-3.334-3.355-6.865,3.386-10.57-2.023-3.706,1.5-7.587-2.983-11.623-1.91-4.047-1.548-8.248.857-12.6-1.7-4.356.31-8.857,1.146-13.492-1.414-4.635-.547-9.414-3.768-14.307-1.022-4.893-2.023-9.91-.557-15.03-.547-5.12-1.806-10.354-.65-15.68.01-9.3-2.343-17.466-.578-24.62.134-7.154.805-13.3-.64-18.571-.7-5.275-1.27-9.683-1.806-13.368-1.259-3.685,4.387-6.648-1.9-9.022-1.569-2.374-.681-4.17-4.656-5.523-1.641-1.352-.134-2.271-3.881-2.89-1.476-.619-.723-.939.568-1.1-1.063-.165,2.116-.175,5.048-.175-.413,0,6.483-1.817,1.486-3.912-1.765C3.76,77.7,1.365,81.1.219,70.615Z" transform="translate(0 0)" fill="#dae5ef"/><path d="M59.475,12.418c9.1,14.4,2.261,36.377-12.14,45.482A30.851,30.851,0,0,1,14.375,5.739C28.765-3.366,50.37-1.993,59.475,12.418Z" transform="translate(266.642 58.363)" fill="#dae5ef"/></g><g transform="translate(266.628 175.681)"><path d="M58.353,41.394A33.007,33.007,0,0,1,47.308,53.265,30.83,30.83,0,1,1,14.379,1.135,20.475,20.475,0,0,1,16.443,0a30.71,30.71,0,0,0,1.239,30.762A30.666,30.666,0,0,0,58.353,41.394Z" transform="translate(0 0.609)" fill="#cbd6e0"/><path d="M.217,1.239A2.036,2.036,0,0,0,.145,0C.093.021.052.052,0,.072Z" transform="translate(17.641 0)" fill="#cbd6e0"/></g></g></g><g transform="translate(2779.667 932.994)"><g transform="translate(21.333)"><path d="M68.945,38.166l-4.837-2.779,4.554-2.635a1.1,1.1,0,0,0,.394-1.5l-1.1-1.891a1.1,1.1,0,0,0-1.5-.394l-6.73,3.9-3-2.671,6.641-2.928a1.1,1.1,0,0,0,0-2L56.639,22.3l3.088-1.748,6.762,3.937a1.094,1.094,0,0,0,1.5-.394l1.1-1.891a1.1,1.1,0,0,0-.394-1.5l-4.589-2.672,4.84-2.781a1.093,1.093,0,0,0,.4-1.5l-1.1-1.9a1.1,1.1,0,0,0-1.5-.4l-4.845,2.784L61.9,8.941a1.094,1.094,0,0,0-1.1-1.09l-2.189.01a1.1,1.1,0,0,0-1.09,1.1l.011,7.8-3.363,1.9-.006-6.5a1.094,1.094,0,0,0-1.744-.992L47.6,14.5V10.026l6.8-3.891a1.1,1.1,0,0,0,.407-1.493l-1.086-1.9a1.1,1.1,0,0,0-1.493-.407L47.6,4.982V1.095A1.1,1.1,0,0,0,46.508,0H44.319a1.1,1.1,0,0,0-1.095,1.095V5L38.6,2.334a1.094,1.094,0,0,0-1.493.407l-1.086,1.9a1.094,1.094,0,0,0,.407,1.493l6.8,3.911v4.435l-4.769-3.288a1.093,1.093,0,0,0-.661-.222.19.19,0,0,0-.043,0,1.094,1.094,0,0,0-1.095,1.095v6.779l-3.349-2.959.029-7.846a1.094,1.094,0,0,0-1.09-1.1l-2.189-.01a1.1,1.1,0,0,0-1.1,1.09l-.019,5.355-4.863-2.794a1.1,1.1,0,0,0-1.5.4l-1.1,1.9a1.093,1.093,0,0,0,.4,1.5l4.837,2.779-4.554,2.635a1.1,1.1,0,0,0-.394,1.5l1.1,1.891a1.1,1.1,0,0,0,1.5.394l6.73-3.9,3,2.671-6.641,2.928a1.1,1.1,0,0,0,0,2l6.731,2.967L31.1,31.986l-6.762-3.937a1.094,1.094,0,0,0-1.5.394l-1.1,1.891a1.1,1.1,0,0,0,.394,1.5L26.722,34.5l-4.84,2.781a1.093,1.093,0,0,0-.4,1.5l1.1,1.9a1.1,1.1,0,0,0,1.5.4l4.845-2.784.005,5.307a1.1,1.1,0,0,0,1.1,1.09l2.189-.01a1.094,1.094,0,0,0,1.09-1.1l-.011-7.8,3.363-1.9.006,6.5a1.094,1.094,0,0,0,1.744.992l4.817-3.334v4.478l-6.8,3.891A1.094,1.094,0,0,0,36.02,47.9l1.086,1.9a1.1,1.1,0,0,0,1.493.407l4.625-2.648v3.887a1.1,1.1,0,0,0,1.095,1.095h2.189A1.1,1.1,0,0,0,47.6,51.444v-3.9l4.625,2.664a1.094,1.094,0,0,0,1.493-.407l1.086-1.9A1.094,1.094,0,0,0,54.4,46.4l-6.8-3.911V38.058l4.769,3.288a1.093,1.093,0,0,0,.661.222.19.19,0,0,0,.043,0,1.094,1.094,0,0,0,1.095-1.095V33.7l3.349,2.959L57.49,44.5a1.094,1.094,0,0,0,1.09,1.1l2.189.01a1.1,1.1,0,0,0,1.1-1.09l.019-5.355,4.863,2.794a1.1,1.1,0,0,0,1.5-.4l1.1-1.9A1.093,1.093,0,0,0,68.945,38.166Z" transform="translate(-21.333)" fill="#ebebeb"/></g></g><g transform="translate(2964.667 1255.818)"><g transform="translate(21.333)"><path d="M67.939,37.36,63.2,34.639l4.457-2.58a1.072,1.072,0,0,0,.386-1.465l-1.08-1.851a1.072,1.072,0,0,0-1.465-.386l-6.588,3.816-2.934-2.614,6.5-2.866a1.072,1.072,0,0,0,0-1.961l-6.588-2.9,3.023-1.711,6.619,3.854A1.071,1.071,0,0,0,67,23.587l1.079-1.851a1.071,1.071,0,0,0-.386-1.465L63.2,17.656l4.738-2.722a1.07,1.07,0,0,0,.393-1.464l-1.074-1.856a1.076,1.076,0,0,0-1.467-.392l-4.743,2.725-.005-5.195a1.071,1.071,0,0,0-1.076-1.067l-2.143.01a1.071,1.071,0,0,0-1.067,1.076l.011,7.635-3.292,1.864L53.47,11.9a1.071,1.071,0,0,0-1.708-.971L47.048,14.2V9.814L53.7,6.005a1.071,1.071,0,0,0,.4-1.462l-1.063-1.86a1.071,1.071,0,0,0-1.462-.4L47.048,4.876v-3.8A1.072,1.072,0,0,0,45.976,0H43.834a1.072,1.072,0,0,0-1.071,1.071V4.892L38.235,2.284a1.071,1.071,0,0,0-1.462.4L35.71,4.543a1.071,1.071,0,0,0,.4,1.462l6.654,3.829v4.341l-4.669-3.219a1.07,1.07,0,0,0-.647-.218.186.186,0,0,0-.042,0,1.071,1.071,0,0,0-1.071,1.071v6.635l-3.278-2.9.028-7.68a1.071,1.071,0,0,0-1.067-1.076l-2.142-.01A1.072,1.072,0,0,0,28.8,7.85l-.019,5.242-4.76-2.735a1.076,1.076,0,0,0-1.467.392l-1.074,1.856a1.07,1.07,0,0,0,.393,1.464l4.735,2.72-4.457,2.58a1.072,1.072,0,0,0-.386,1.465l1.08,1.851a1.072,1.072,0,0,0,1.465.386L30.9,19.254l2.934,2.614-6.5,2.866a1.072,1.072,0,0,0,0,1.961l6.588,2.9-3.023,1.711-6.619-3.854a1.071,1.071,0,0,0-1.465.386l-1.08,1.851a1.071,1.071,0,0,0,.386,1.465l4.492,2.615L21.871,36.5a1.07,1.07,0,0,0-.393,1.464l1.074,1.856a1.076,1.076,0,0,0,1.467.392l4.743-2.725.005,5.195a1.071,1.071,0,0,0,1.076,1.067l2.143-.01a1.071,1.071,0,0,0,1.067-1.076l-.011-7.635,3.292-1.864.006,6.365a1.071,1.071,0,0,0,1.708.971l4.715-3.263v4.383l-6.654,3.809a1.071,1.071,0,0,0-.4,1.462l1.063,1.86a1.071,1.071,0,0,0,1.462.4l4.527-2.592v3.8a1.071,1.071,0,0,0,1.071,1.071h2.143a1.071,1.071,0,0,0,1.071-1.071v-3.82l4.527,2.608a1.071,1.071,0,0,0,1.462-.4l1.063-1.86a1.071,1.071,0,0,0-.4-1.462L47.048,41.6V37.254l4.669,3.219a1.07,1.07,0,0,0,.647.218.186.186,0,0,0,.042,0,1.071,1.071,0,0,0,1.071-1.071V32.983l3.278,2.9-.028,7.68a1.071,1.071,0,0,0,1.067,1.076l2.142.01a1.072,1.072,0,0,0,1.076-1.067l.019-5.242,4.76,2.735a1.076,1.076,0,0,0,1.467-.392l1.074-1.856A1.07,1.07,0,0,0,67.939,37.36Z" transform="translate(-21.333)" fill="#ebebeb"/></g></g><g transform="translate(2902.667 1365.818)"><g transform="translate(21.333)"><path d="M59.136,30.3,55.3,28.1,58.911,26a.869.869,0,0,0,.313-1.189l-.876-1.5A.869.869,0,0,0,57.16,23l-5.344,3.1-2.38-2.12,5.273-2.324a.87.87,0,0,0,0-1.59l-5.344-2.356,2.452-1.388,5.369,3.126a.869.869,0,0,0,1.188-.313l.876-1.5a.869.869,0,0,0-.313-1.189l-3.644-2.121,3.843-2.208a.868.868,0,0,0,.319-1.187L58.584,9.42a.872.872,0,0,0-1.19-.318l-3.847,2.21,0-4.213a.869.869,0,0,0-.873-.865l-1.738.008a.869.869,0,0,0-.865.873l.009,6.192L47.4,14.819,47.4,9.656a.869.869,0,0,0-1.385-.788l-3.824,2.647V7.96l5.4-3.089a.869.869,0,0,0,.323-1.186l-.862-1.509a.869.869,0,0,0-1.186-.323l-3.672,2.1V.869A.869.869,0,0,0,41.322,0H39.584a.869.869,0,0,0-.869.869v3.1L35.042,1.853a.869.869,0,0,0-1.186.323l-.862,1.509a.869.869,0,0,0,.323,1.186l5.4,3.105V11.5L34.928,8.887A.868.868,0,0,0,34.4,8.71a.151.151,0,0,0-.034,0,.869.869,0,0,0-.869.869v5.382l-2.659-2.349.023-6.229A.869.869,0,0,0,30,5.51L28.261,5.5a.869.869,0,0,0-.873.865l-.015,4.252L23.512,8.4a.872.872,0,0,0-1.19.318l-.871,1.505a.868.868,0,0,0,.319,1.187l3.84,2.207L21.994,15.71a.869.869,0,0,0-.313,1.189l.876,1.5a.869.869,0,0,0,1.189.313l5.344-3.1,2.38,2.12L26.2,20.062a.87.87,0,0,0,0,1.59l5.344,2.356L29.089,25.4,23.72,22.27a.869.869,0,0,0-1.188.313l-.876,1.5a.869.869,0,0,0,.313,1.189l3.644,2.121L21.769,29.6a.868.868,0,0,0-.319,1.187l.871,1.505a.872.872,0,0,0,1.19.318l3.847-2.21,0,4.213a.869.869,0,0,0,.873.865l1.738-.008a.869.869,0,0,0,.865-.873l-.009-6.193L33.5,26.9l.005,5.163a.869.869,0,0,0,1.385.788L38.715,30.2v3.555l-5.4,3.089a.869.869,0,0,0-.323,1.186l.862,1.509a.869.869,0,0,0,1.186.323l3.672-2.1v3.086a.869.869,0,0,0,.869.869h1.738a.869.869,0,0,0,.869-.869v-3.1l3.672,2.115a.869.869,0,0,0,1.186-.323l.862-1.509a.869.869,0,0,0-.323-1.186l-5.4-3.105V30.217l3.787,2.611A.868.868,0,0,0,46.5,33a.151.151,0,0,0,.034,0,.869.869,0,0,0,.869-.869V26.753L50.064,29.1l-.023,6.229a.869.869,0,0,0,.865.873l1.738.008a.869.869,0,0,0,.873-.865l.015-4.252,3.861,2.218A.872.872,0,0,0,58.584,33l.871-1.505A.868.868,0,0,0,59.136,30.3Z" transform="translate(-21.333)" fill="#ebebeb"/></g></g><g transform="translate(3042.667 1195.818)"><g transform="translate(21.333)"><path d="M67.939,37.36,63.2,34.639l4.457-2.58a1.072,1.072,0,0,0,.386-1.465l-1.08-1.851a1.072,1.072,0,0,0-1.465-.386l-6.588,3.816-2.934-2.614,6.5-2.866a1.072,1.072,0,0,0,0-1.961l-6.588-2.9,3.023-1.711,6.619,3.854A1.071,1.071,0,0,0,67,23.587l1.079-1.851a1.071,1.071,0,0,0-.386-1.465L63.2,17.656l4.738-2.722a1.07,1.07,0,0,0,.393-1.464l-1.074-1.856a1.076,1.076,0,0,0-1.467-.392l-4.743,2.725-.005-5.195a1.071,1.071,0,0,0-1.076-1.067l-2.143.01a1.071,1.071,0,0,0-1.067,1.076l.011,7.635-3.292,1.864L53.47,11.9a1.071,1.071,0,0,0-1.708-.971L47.048,14.2V9.814L53.7,6.005a1.071,1.071,0,0,0,.4-1.462l-1.063-1.86a1.071,1.071,0,0,0-1.462-.4L47.048,4.876v-3.8A1.072,1.072,0,0,0,45.976,0H43.834a1.072,1.072,0,0,0-1.071,1.071V4.892L38.235,2.284a1.071,1.071,0,0,0-1.462.4L35.71,4.543a1.071,1.071,0,0,0,.4,1.462l6.654,3.829v4.341l-4.669-3.219a1.07,1.07,0,0,0-.647-.218.186.186,0,0,0-.042,0,1.071,1.071,0,0,0-1.071,1.071v6.635l-3.278-2.9.028-7.68a1.071,1.071,0,0,0-1.067-1.076l-2.142-.01A1.072,1.072,0,0,0,28.8,7.85l-.019,5.242-4.76-2.735a1.076,1.076,0,0,0-1.467.392l-1.074,1.856a1.07,1.07,0,0,0,.393,1.464l4.735,2.72-4.457,2.58a1.072,1.072,0,0,0-.386,1.465l1.08,1.851a1.072,1.072,0,0,0,1.465.386L30.9,19.254l2.934,2.614-6.5,2.866a1.072,1.072,0,0,0,0,1.961l6.588,2.9-3.023,1.711-6.619-3.854a1.071,1.071,0,0,0-1.465.386l-1.08,1.851a1.071,1.071,0,0,0,.386,1.465l4.492,2.615L21.871,36.5a1.07,1.07,0,0,0-.393,1.464l1.074,1.856a1.076,1.076,0,0,0,1.467.392l4.743-2.725.005,5.195a1.071,1.071,0,0,0,1.076,1.067l2.143-.01a1.071,1.071,0,0,0,1.067-1.076l-.011-7.635,3.292-1.864.006,6.365a1.071,1.071,0,0,0,1.708.971l4.715-3.263v4.383l-6.654,3.809a1.071,1.071,0,0,0-.4,1.462l1.063,1.86a1.071,1.071,0,0,0,1.462.4l4.527-2.592v3.8a1.071,1.071,0,0,0,1.071,1.071h2.143a1.071,1.071,0,0,0,1.071-1.071v-3.82l4.527,2.608a1.071,1.071,0,0,0,1.462-.4l1.063-1.86a1.071,1.071,0,0,0-.4-1.462L47.048,41.6V37.254l4.669,3.219a1.07,1.07,0,0,0,.647.218.186.186,0,0,0,.042,0,1.071,1.071,0,0,0,1.071-1.071V32.983l3.278,2.9-.028,7.68a1.071,1.071,0,0,0,1.067,1.076l2.142.01a1.072,1.072,0,0,0,1.076-1.067l.019-5.242,4.76,2.735a1.076,1.076,0,0,0,1.467-.392l1.074-1.856A1.07,1.07,0,0,0,67.939,37.36Z" transform="translate(-21.333)" fill="#ebebeb"/></g></g><g transform="translate(2715.667 1334.818)"><g transform="translate(21.333)"><path d="M67.939,37.36,63.2,34.639l4.457-2.58a1.072,1.072,0,0,0,.386-1.465l-1.08-1.851a1.072,1.072,0,0,0-1.465-.386l-6.588,3.816-2.934-2.614,6.5-2.866a1.072,1.072,0,0,0,0-1.961l-6.588-2.9,3.023-1.711,6.619,3.854A1.071,1.071,0,0,0,67,23.587l1.079-1.851a1.071,1.071,0,0,0-.386-1.465L63.2,17.656l4.738-2.722a1.07,1.07,0,0,0,.393-1.464l-1.074-1.856a1.076,1.076,0,0,0-1.467-.392l-4.743,2.725-.005-5.195a1.071,1.071,0,0,0-1.076-1.067l-2.143.01a1.071,1.071,0,0,0-1.067,1.076l.011,7.635-3.292,1.864L53.47,11.9a1.071,1.071,0,0,0-1.708-.971L47.048,14.2V9.814L53.7,6.005a1.071,1.071,0,0,0,.4-1.462l-1.063-1.86a1.071,1.071,0,0,0-1.462-.4L47.048,4.876v-3.8A1.072,1.072,0,0,0,45.976,0H43.834a1.072,1.072,0,0,0-1.071,1.071V4.892L38.235,2.284a1.071,1.071,0,0,0-1.462.4L35.71,4.543a1.071,1.071,0,0,0,.4,1.462l6.654,3.829v4.341l-4.669-3.219a1.07,1.07,0,0,0-.647-.218.186.186,0,0,0-.042,0,1.071,1.071,0,0,0-1.071,1.071v6.635l-3.278-2.9.028-7.68a1.071,1.071,0,0,0-1.067-1.076l-2.142-.01A1.072,1.072,0,0,0,28.8,7.85l-.019,5.242-4.76-2.735a1.076,1.076,0,0,0-1.467.392l-1.074,1.856a1.07,1.07,0,0,0,.393,1.464l4.735,2.72-4.457,2.58a1.072,1.072,0,0,0-.386,1.465l1.08,1.851a1.072,1.072,0,0,0,1.465.386L30.9,19.254l2.934,2.614-6.5,2.866a1.072,1.072,0,0,0,0,1.961l6.588,2.9-3.023,1.711-6.619-3.854a1.071,1.071,0,0,0-1.465.386l-1.08,1.851a1.071,1.071,0,0,0,.386,1.465l4.492,2.615L21.871,36.5a1.07,1.07,0,0,0-.393,1.464l1.074,1.856a1.076,1.076,0,0,0,1.467.392l4.743-2.725.005,5.195a1.071,1.071,0,0,0,1.076,1.067l2.143-.01a1.071,1.071,0,0,0,1.067-1.076l-.011-7.635,3.292-1.864.006,6.365a1.071,1.071,0,0,0,1.708.971l4.715-3.263v4.383l-6.654,3.809a1.071,1.071,0,0,0-.4,1.462l1.063,1.86a1.071,1.071,0,0,0,1.462.4l4.527-2.592v3.8a1.071,1.071,0,0,0,1.071,1.071h2.143a1.071,1.071,0,0,0,1.071-1.071v-3.82l4.527,2.608a1.071,1.071,0,0,0,1.462-.4l1.063-1.86a1.071,1.071,0,0,0-.4-1.462L47.048,41.6V37.254l4.669,3.219a1.07,1.07,0,0,0,.647.218.186.186,0,0,0,.042,0,1.071,1.071,0,0,0,1.071-1.071V32.983l3.278,2.9-.028,7.68a1.071,1.071,0,0,0,1.067,1.076l2.142.01a1.072,1.072,0,0,0,1.076-1.067l.019-5.242,4.76,2.735a1.076,1.076,0,0,0,1.467-.392l1.074-1.856A1.07,1.07,0,0,0,67.939,37.36Z" transform="translate(-21.333)" fill="#ebebeb"/></g></g><g transform="translate(2625.667 1169.818)"><g transform="translate(21.333)"><path d="M67.939,37.36,63.2,34.639l4.457-2.58a1.072,1.072,0,0,0,.386-1.465l-1.08-1.851a1.072,1.072,0,0,0-1.465-.386l-6.588,3.816-2.934-2.614,6.5-2.866a1.072,1.072,0,0,0,0-1.961l-6.588-2.9,3.023-1.711,6.619,3.854A1.071,1.071,0,0,0,67,23.587l1.079-1.851a1.071,1.071,0,0,0-.386-1.465L63.2,17.656l4.738-2.722a1.07,1.07,0,0,0,.393-1.464l-1.074-1.856a1.076,1.076,0,0,0-1.467-.392l-4.743,2.725-.005-5.195a1.071,1.071,0,0,0-1.076-1.067l-2.143.01a1.071,1.071,0,0,0-1.067,1.076l.011,7.635-3.292,1.864L53.47,11.9a1.071,1.071,0,0,0-1.708-.971L47.048,14.2V9.814L53.7,6.005a1.071,1.071,0,0,0,.4-1.462l-1.063-1.86a1.071,1.071,0,0,0-1.462-.4L47.048,4.876v-3.8A1.072,1.072,0,0,0,45.976,0H43.834a1.072,1.072,0,0,0-1.071,1.071V4.892L38.235,2.284a1.071,1.071,0,0,0-1.462.4L35.71,4.543a1.071,1.071,0,0,0,.4,1.462l6.654,3.829v4.341l-4.669-3.219a1.07,1.07,0,0,0-.647-.218.186.186,0,0,0-.042,0,1.071,1.071,0,0,0-1.071,1.071v6.635l-3.278-2.9.028-7.68a1.071,1.071,0,0,0-1.067-1.076l-2.142-.01A1.072,1.072,0,0,0,28.8,7.85l-.019,5.242-4.76-2.735a1.076,1.076,0,0,0-1.467.392l-1.074,1.856a1.07,1.07,0,0,0,.393,1.464l4.735,2.72-4.457,2.58a1.072,1.072,0,0,0-.386,1.465l1.08,1.851a1.072,1.072,0,0,0,1.465.386L30.9,19.254l2.934,2.614-6.5,2.866a1.072,1.072,0,0,0,0,1.961l6.588,2.9-3.023,1.711-6.619-3.854a1.071,1.071,0,0,0-1.465.386l-1.08,1.851a1.071,1.071,0,0,0,.386,1.465l4.492,2.615L21.871,36.5a1.07,1.07,0,0,0-.393,1.464l1.074,1.856a1.076,1.076,0,0,0,1.467.392l4.743-2.725.005,5.195a1.071,1.071,0,0,0,1.076,1.067l2.143-.01a1.071,1.071,0,0,0,1.067-1.076l-.011-7.635,3.292-1.864.006,6.365a1.071,1.071,0,0,0,1.708.971l4.715-3.263v4.383l-6.654,3.809a1.071,1.071,0,0,0-.4,1.462l1.063,1.86a1.071,1.071,0,0,0,1.462.4l4.527-2.592v3.8a1.071,1.071,0,0,0,1.071,1.071h2.143a1.071,1.071,0,0,0,1.071-1.071v-3.82l4.527,2.608a1.071,1.071,0,0,0,1.462-.4l1.063-1.86a1.071,1.071,0,0,0-.4-1.462L47.048,41.6V37.254l4.669,3.219a1.07,1.07,0,0,0,.647.218.186.186,0,0,0,.042,0,1.071,1.071,0,0,0,1.071-1.071V32.983l3.278,2.9-.028,7.68a1.071,1.071,0,0,0,1.067,1.076l2.142.01a1.072,1.072,0,0,0,1.076-1.067l.019-5.242,4.76,2.735a1.076,1.076,0,0,0,1.467-.392l1.074-1.856A1.07,1.07,0,0,0,67.939,37.36Z" transform="translate(-21.333)" fill="#ebebeb"/></g></g><g transform="translate(2732.667 1021.818)"><g transform="translate(21.333)"><path d="M67.939,37.36,63.2,34.639l4.457-2.58a1.072,1.072,0,0,0,.386-1.465l-1.08-1.851a1.072,1.072,0,0,0-1.465-.386l-6.588,3.816-2.934-2.614,6.5-2.866a1.072,1.072,0,0,0,0-1.961l-6.588-2.9,3.023-1.711,6.619,3.854A1.071,1.071,0,0,0,67,23.587l1.079-1.851a1.071,1.071,0,0,0-.386-1.465L63.2,17.656l4.738-2.722a1.07,1.07,0,0,0,.393-1.464l-1.074-1.856a1.076,1.076,0,0,0-1.467-.392l-4.743,2.725-.005-5.195a1.071,1.071,0,0,0-1.076-1.067l-2.143.01a1.071,1.071,0,0,0-1.067,1.076l.011,7.635-3.292,1.864L53.47,11.9a1.071,1.071,0,0,0-1.708-.971L47.048,14.2V9.814L53.7,6.005a1.071,1.071,0,0,0,.4-1.462l-1.063-1.86a1.071,1.071,0,0,0-1.462-.4L47.048,4.876v-3.8A1.072,1.072,0,0,0,45.976,0H43.834a1.072,1.072,0,0,0-1.071,1.071V4.892L38.235,2.284a1.071,1.071,0,0,0-1.462.4L35.71,4.543a1.071,1.071,0,0,0,.4,1.462l6.654,3.829v4.341l-4.669-3.219a1.07,1.07,0,0,0-.647-.218.186.186,0,0,0-.042,0,1.071,1.071,0,0,0-1.071,1.071v6.635l-3.278-2.9.028-7.68a1.071,1.071,0,0,0-1.067-1.076l-2.142-.01A1.072,1.072,0,0,0,28.8,7.85l-.019,5.242-4.76-2.735a1.076,1.076,0,0,0-1.467.392l-1.074,1.856a1.07,1.07,0,0,0,.393,1.464l4.735,2.72-4.457,2.58a1.072,1.072,0,0,0-.386,1.465l1.08,1.851a1.072,1.072,0,0,0,1.465.386L30.9,19.254l2.934,2.614-6.5,2.866a1.072,1.072,0,0,0,0,1.961l6.588,2.9-3.023,1.711-6.619-3.854a1.071,1.071,0,0,0-1.465.386l-1.08,1.851a1.071,1.071,0,0,0,.386,1.465l4.492,2.615L21.871,36.5a1.07,1.07,0,0,0-.393,1.464l1.074,1.856a1.076,1.076,0,0,0,1.467.392l4.743-2.725.005,5.195a1.071,1.071,0,0,0,1.076,1.067l2.143-.01a1.071,1.071,0,0,0,1.067-1.076l-.011-7.635,3.292-1.864.006,6.365a1.071,1.071,0,0,0,1.708.971l4.715-3.263v4.383l-6.654,3.809a1.071,1.071,0,0,0-.4,1.462l1.063,1.86a1.071,1.071,0,0,0,1.462.4l4.527-2.592v3.8a1.071,1.071,0,0,0,1.071,1.071h2.143a1.071,1.071,0,0,0,1.071-1.071v-3.82l4.527,2.608a1.071,1.071,0,0,0,1.462-.4l1.063-1.86a1.071,1.071,0,0,0-.4-1.462L47.048,41.6V37.254l4.669,3.219a1.07,1.07,0,0,0,.647.218.186.186,0,0,0,.042,0,1.071,1.071,0,0,0,1.071-1.071V32.983l3.278,2.9-.028,7.68a1.071,1.071,0,0,0,1.067,1.076l2.142.01a1.072,1.072,0,0,0,1.076-1.067l.019-5.242,4.76,2.735a1.076,1.076,0,0,0,1.467-.392l1.074-1.856A1.07,1.07,0,0,0,67.939,37.36Z" transform="translate(-21.333)" fill="#ebebeb"/></g></g><g transform="translate(2964.667 1255.818)"><g transform="translate(21.333)"><path d="M67.939,37.36,63.2,34.639l4.457-2.58a1.072,1.072,0,0,0,.386-1.465l-1.08-1.851a1.072,1.072,0,0,0-1.465-.386l-6.588,3.816-2.934-2.614,6.5-2.866a1.072,1.072,0,0,0,0-1.961l-6.588-2.9,3.023-1.711,6.619,3.854A1.071,1.071,0,0,0,67,23.587l1.079-1.851a1.071,1.071,0,0,0-.386-1.465L63.2,17.656l4.738-2.722a1.07,1.07,0,0,0,.393-1.464l-1.074-1.856a1.076,1.076,0,0,0-1.467-.392l-4.743,2.725-.005-5.195a1.071,1.071,0,0,0-1.076-1.067l-2.143.01a1.071,1.071,0,0,0-1.067,1.076l.011,7.635-3.292,1.864L53.47,11.9a1.071,1.071,0,0,0-1.708-.971L47.048,14.2V9.814L53.7,6.005a1.071,1.071,0,0,0,.4-1.462l-1.063-1.86a1.071,1.071,0,0,0-1.462-.4L47.048,4.876v-3.8A1.072,1.072,0,0,0,45.976,0H43.834a1.072,1.072,0,0,0-1.071,1.071V4.892L38.235,2.284a1.071,1.071,0,0,0-1.462.4L35.71,4.543a1.071,1.071,0,0,0,.4,1.462l6.654,3.829v4.341l-4.669-3.219a1.07,1.07,0,0,0-.647-.218.186.186,0,0,0-.042,0,1.071,1.071,0,0,0-1.071,1.071v6.635l-3.278-2.9.028-7.68a1.071,1.071,0,0,0-1.067-1.076l-2.142-.01A1.072,1.072,0,0,0,28.8,7.85l-.019,5.242-4.76-2.735a1.076,1.076,0,0,0-1.467.392l-1.074,1.856a1.07,1.07,0,0,0,.393,1.464l4.735,2.72-4.457,2.58a1.072,1.072,0,0,0-.386,1.465l1.08,1.851a1.072,1.072,0,0,0,1.465.386L30.9,19.254l2.934,2.614-6.5,2.866a1.072,1.072,0,0,0,0,1.961l6.588,2.9-3.023,1.711-6.619-3.854a1.071,1.071,0,0,0-1.465.386l-1.08,1.851a1.071,1.071,0,0,0,.386,1.465l4.492,2.615L21.871,36.5a1.07,1.07,0,0,0-.393,1.464l1.074,1.856a1.076,1.076,0,0,0,1.467.392l4.743-2.725.005,5.195a1.071,1.071,0,0,0,1.076,1.067l2.143-.01a1.071,1.071,0,0,0,1.067-1.076l-.011-7.635,3.292-1.864.006,6.365a1.071,1.071,0,0,0,1.708.971l4.715-3.263v4.383l-6.654,3.809a1.071,1.071,0,0,0-.4,1.462l1.063,1.86a1.071,1.071,0,0,0,1.462.4l4.527-2.592v3.8a1.071,1.071,0,0,0,1.071,1.071h2.143a1.071,1.071,0,0,0,1.071-1.071v-3.82l4.527,2.608a1.071,1.071,0,0,0,1.462-.4l1.063-1.86a1.071,1.071,0,0,0-.4-1.462L47.048,41.6V37.254l4.669,3.219a1.07,1.07,0,0,0,.647.218.186.186,0,0,0,.042,0,1.071,1.071,0,0,0,1.071-1.071V32.983l3.278,2.9-.028,7.68a1.071,1.071,0,0,0,1.067,1.076l2.142.01a1.072,1.072,0,0,0,1.076-1.067l.019-5.242,4.76,2.735a1.076,1.076,0,0,0,1.467-.392l1.074-1.856A1.07,1.07,0,0,0,67.939,37.36Z" transform="translate(-21.333)" fill="#ebebeb"/></g></g><g transform="translate(2878.667 1283.818)"><g transform="translate(21.333)"><path d="M67.939,37.36,63.2,34.639l4.457-2.58a1.072,1.072,0,0,0,.386-1.465l-1.08-1.851a1.072,1.072,0,0,0-1.465-.386l-6.588,3.816-2.934-2.614,6.5-2.866a1.072,1.072,0,0,0,0-1.961l-6.588-2.9,3.023-1.711,6.619,3.854A1.071,1.071,0,0,0,67,23.587l1.079-1.851a1.071,1.071,0,0,0-.386-1.465L63.2,17.656l4.738-2.722a1.07,1.07,0,0,0,.393-1.464l-1.074-1.856a1.076,1.076,0,0,0-1.467-.392l-4.743,2.725-.005-5.195a1.071,1.071,0,0,0-1.076-1.067l-2.143.01a1.071,1.071,0,0,0-1.067,1.076l.011,7.635-3.292,1.864L53.47,11.9a1.071,1.071,0,0,0-1.708-.971L47.048,14.2V9.814L53.7,6.005a1.071,1.071,0,0,0,.4-1.462l-1.063-1.86a1.071,1.071,0,0,0-1.462-.4L47.048,4.876v-3.8A1.072,1.072,0,0,0,45.976,0H43.834a1.072,1.072,0,0,0-1.071,1.071V4.892L38.235,2.284a1.071,1.071,0,0,0-1.462.4L35.71,4.543a1.071,1.071,0,0,0,.4,1.462l6.654,3.829v4.341l-4.669-3.219a1.07,1.07,0,0,0-.647-.218.186.186,0,0,0-.042,0,1.071,1.071,0,0,0-1.071,1.071v6.635l-3.278-2.9.028-7.68a1.071,1.071,0,0,0-1.067-1.076l-2.142-.01A1.072,1.072,0,0,0,28.8,7.85l-.019,5.242-4.76-2.735a1.076,1.076,0,0,0-1.467.392l-1.074,1.856a1.07,1.07,0,0,0,.393,1.464l4.735,2.72-4.457,2.58a1.072,1.072,0,0,0-.386,1.465l1.08,1.851a1.072,1.072,0,0,0,1.465.386L30.9,19.254l2.934,2.614-6.5,2.866a1.072,1.072,0,0,0,0,1.961l6.588,2.9-3.023,1.711-6.619-3.854a1.071,1.071,0,0,0-1.465.386l-1.08,1.851a1.071,1.071,0,0,0,.386,1.465l4.492,2.615L21.871,36.5a1.07,1.07,0,0,0-.393,1.464l1.074,1.856a1.076,1.076,0,0,0,1.467.392l4.743-2.725.005,5.195a1.071,1.071,0,0,0,1.076,1.067l2.143-.01a1.071,1.071,0,0,0,1.067-1.076l-.011-7.635,3.292-1.864.006,6.365a1.071,1.071,0,0,0,1.708.971l4.715-3.263v4.383l-6.654,3.809a1.071,1.071,0,0,0-.4,1.462l1.063,1.86a1.071,1.071,0,0,0,1.462.4l4.527-2.592v3.8a1.071,1.071,0,0,0,1.071,1.071h2.143a1.071,1.071,0,0,0,1.071-1.071v-3.82l4.527,2.608a1.071,1.071,0,0,0,1.462-.4l1.063-1.86a1.071,1.071,0,0,0-.4-1.462L47.048,41.6V37.254l4.669,3.219a1.07,1.07,0,0,0,.647.218.186.186,0,0,0,.042,0,1.071,1.071,0,0,0,1.071-1.071V32.983l3.278,2.9-.028,7.68a1.071,1.071,0,0,0,1.067,1.076l2.142.01a1.072,1.072,0,0,0,1.076-1.067l.019-5.242,4.76,2.735a1.076,1.076,0,0,0,1.467-.392l1.074-1.856A1.07,1.07,0,0,0,67.939,37.36Z" transform="translate(-21.333)" fill="#ebebeb"/></g></g><g transform="translate(2780.667 1092.818)"><g transform="translate(21.333)"><path d="M67.939,37.36,63.2,34.639l4.457-2.58a1.072,1.072,0,0,0,.386-1.465l-1.08-1.851a1.072,1.072,0,0,0-1.465-.386l-6.588,3.816-2.934-2.614,6.5-2.866a1.072,1.072,0,0,0,0-1.961l-6.588-2.9,3.023-1.711,6.619,3.854A1.071,1.071,0,0,0,67,23.587l1.079-1.851a1.071,1.071,0,0,0-.386-1.465L63.2,17.656l4.738-2.722a1.07,1.07,0,0,0,.393-1.464l-1.074-1.856a1.076,1.076,0,0,0-1.467-.392l-4.743,2.725-.005-5.195a1.071,1.071,0,0,0-1.076-1.067l-2.143.01a1.071,1.071,0,0,0-1.067,1.076l.011,7.635-3.292,1.864L53.47,11.9a1.071,1.071,0,0,0-1.708-.971L47.048,14.2V9.814L53.7,6.005a1.071,1.071,0,0,0,.4-1.462l-1.063-1.86a1.071,1.071,0,0,0-1.462-.4L47.048,4.876v-3.8A1.072,1.072,0,0,0,45.976,0H43.834a1.072,1.072,0,0,0-1.071,1.071V4.892L38.235,2.284a1.071,1.071,0,0,0-1.462.4L35.71,4.543a1.071,1.071,0,0,0,.4,1.462l6.654,3.829v4.341l-4.669-3.219a1.07,1.07,0,0,0-.647-.218.186.186,0,0,0-.042,0,1.071,1.071,0,0,0-1.071,1.071v6.635l-3.278-2.9.028-7.68a1.071,1.071,0,0,0-1.067-1.076l-2.142-.01A1.072,1.072,0,0,0,28.8,7.85l-.019,5.242-4.76-2.735a1.076,1.076,0,0,0-1.467.392l-1.074,1.856a1.07,1.07,0,0,0,.393,1.464l4.735,2.72-4.457,2.58a1.072,1.072,0,0,0-.386,1.465l1.08,1.851a1.072,1.072,0,0,0,1.465.386L30.9,19.254l2.934,2.614-6.5,2.866a1.072,1.072,0,0,0,0,1.961l6.588,2.9-3.023,1.711-6.619-3.854a1.071,1.071,0,0,0-1.465.386l-1.08,1.851a1.071,1.071,0,0,0,.386,1.465l4.492,2.615L21.871,36.5a1.07,1.07,0,0,0-.393,1.464l1.074,1.856a1.076,1.076,0,0,0,1.467.392l4.743-2.725.005,5.195a1.071,1.071,0,0,0,1.076,1.067l2.143-.01a1.071,1.071,0,0,0,1.067-1.076l-.011-7.635,3.292-1.864.006,6.365a1.071,1.071,0,0,0,1.708.971l4.715-3.263v4.383l-6.654,3.809a1.071,1.071,0,0,0-.4,1.462l1.063,1.86a1.071,1.071,0,0,0,1.462.4l4.527-2.592v3.8a1.071,1.071,0,0,0,1.071,1.071h2.143a1.071,1.071,0,0,0,1.071-1.071v-3.82l4.527,2.608a1.071,1.071,0,0,0,1.462-.4l1.063-1.86a1.071,1.071,0,0,0-.4-1.462L47.048,41.6V37.254l4.669,3.219a1.07,1.07,0,0,0,.647.218.186.186,0,0,0,.042,0,1.071,1.071,0,0,0,1.071-1.071V32.983l3.278,2.9-.028,7.68a1.071,1.071,0,0,0,1.067,1.076l2.142.01a1.072,1.072,0,0,0,1.076-1.067l.019-5.242,4.76,2.735a1.076,1.076,0,0,0,1.467-.392l1.074-1.856A1.07,1.07,0,0,0,67.939,37.36Z" transform="translate(-21.333)" fill="#ebebeb"/></g></g><g transform="translate(2908.667 958.818)"><g transform="translate(21.333)"><path d="M67.939,37.36,63.2,34.639l4.457-2.58a1.072,1.072,0,0,0,.386-1.465l-1.08-1.851a1.072,1.072,0,0,0-1.465-.386l-6.588,3.816-2.934-2.614,6.5-2.866a1.072,1.072,0,0,0,0-1.961l-6.588-2.9,3.023-1.711,6.619,3.854A1.071,1.071,0,0,0,67,23.587l1.079-1.851a1.071,1.071,0,0,0-.386-1.465L63.2,17.656l4.738-2.722a1.07,1.07,0,0,0,.393-1.464l-1.074-1.856a1.076,1.076,0,0,0-1.467-.392l-4.743,2.725-.005-5.195a1.071,1.071,0,0,0-1.076-1.067l-2.143.01a1.071,1.071,0,0,0-1.067,1.076l.011,7.635-3.292,1.864L53.47,11.9a1.071,1.071,0,0,0-1.708-.971L47.048,14.2V9.814L53.7,6.005a1.071,1.071,0,0,0,.4-1.462l-1.063-1.86a1.071,1.071,0,0,0-1.462-.4L47.048,4.876v-3.8A1.072,1.072,0,0,0,45.976,0H43.834a1.072,1.072,0,0,0-1.071,1.071V4.892L38.235,2.284a1.071,1.071,0,0,0-1.462.4L35.71,4.543a1.071,1.071,0,0,0,.4,1.462l6.654,3.829v4.341l-4.669-3.219a1.07,1.07,0,0,0-.647-.218.186.186,0,0,0-.042,0,1.071,1.071,0,0,0-1.071,1.071v6.635l-3.278-2.9.028-7.68a1.071,1.071,0,0,0-1.067-1.076l-2.142-.01A1.072,1.072,0,0,0,28.8,7.85l-.019,5.242-4.76-2.735a1.076,1.076,0,0,0-1.467.392l-1.074,1.856a1.07,1.07,0,0,0,.393,1.464l4.735,2.72-4.457,2.58a1.072,1.072,0,0,0-.386,1.465l1.08,1.851a1.072,1.072,0,0,0,1.465.386L30.9,19.254l2.934,2.614-6.5,2.866a1.072,1.072,0,0,0,0,1.961l6.588,2.9-3.023,1.711-6.619-3.854a1.071,1.071,0,0,0-1.465.386l-1.08,1.851a1.071,1.071,0,0,0,.386,1.465l4.492,2.615L21.871,36.5a1.07,1.07,0,0,0-.393,1.464l1.074,1.856a1.076,1.076,0,0,0,1.467.392l4.743-2.725.005,5.195a1.071,1.071,0,0,0,1.076,1.067l2.143-.01a1.071,1.071,0,0,0,1.067-1.076l-.011-7.635,3.292-1.864.006,6.365a1.071,1.071,0,0,0,1.708.971l4.715-3.263v4.383l-6.654,3.809a1.071,1.071,0,0,0-.4,1.462l1.063,1.86a1.071,1.071,0,0,0,1.462.4l4.527-2.592v3.8a1.071,1.071,0,0,0,1.071,1.071h2.143a1.071,1.071,0,0,0,1.071-1.071v-3.82l4.527,2.608a1.071,1.071,0,0,0,1.462-.4l1.063-1.86a1.071,1.071,0,0,0-.4-1.462L47.048,41.6V37.254l4.669,3.219a1.07,1.07,0,0,0,.647.218.186.186,0,0,0,.042,0,1.071,1.071,0,0,0,1.071-1.071V32.983l3.278,2.9-.028,7.68a1.071,1.071,0,0,0,1.067,1.076l2.142.01a1.072,1.072,0,0,0,1.076-1.067l.019-5.242,4.76,2.735a1.076,1.076,0,0,0,1.467-.392l1.074-1.856A1.07,1.07,0,0,0,67.939,37.36Z" transform="translate(-21.333)" fill="#ebebeb"/></g></g><g transform="translate(3018.667 1054.818)"><g transform="translate(21.333)"><path d="M67.939,37.36,63.2,34.639l4.457-2.58a1.072,1.072,0,0,0,.386-1.465l-1.08-1.851a1.072,1.072,0,0,0-1.465-.386l-6.588,3.816-2.934-2.614,6.5-2.866a1.072,1.072,0,0,0,0-1.961l-6.588-2.9,3.023-1.711,6.619,3.854A1.071,1.071,0,0,0,67,23.587l1.079-1.851a1.071,1.071,0,0,0-.386-1.465L63.2,17.656l4.738-2.722a1.07,1.07,0,0,0,.393-1.464l-1.074-1.856a1.076,1.076,0,0,0-1.467-.392l-4.743,2.725-.005-5.195a1.071,1.071,0,0,0-1.076-1.067l-2.143.01a1.071,1.071,0,0,0-1.067,1.076l.011,7.635-3.292,1.864L53.47,11.9a1.071,1.071,0,0,0-1.708-.971L47.048,14.2V9.814L53.7,6.005a1.071,1.071,0,0,0,.4-1.462l-1.063-1.86a1.071,1.071,0,0,0-1.462-.4L47.048,4.876v-3.8A1.072,1.072,0,0,0,45.976,0H43.834a1.072,1.072,0,0,0-1.071,1.071V4.892L38.235,2.284a1.071,1.071,0,0,0-1.462.4L35.71,4.543a1.071,1.071,0,0,0,.4,1.462l6.654,3.829v4.341l-4.669-3.219a1.07,1.07,0,0,0-.647-.218.186.186,0,0,0-.042,0,1.071,1.071,0,0,0-1.071,1.071v6.635l-3.278-2.9.028-7.68a1.071,1.071,0,0,0-1.067-1.076l-2.142-.01A1.072,1.072,0,0,0,28.8,7.85l-.019,5.242-4.76-2.735a1.076,1.076,0,0,0-1.467.392l-1.074,1.856a1.07,1.07,0,0,0,.393,1.464l4.735,2.72-4.457,2.58a1.072,1.072,0,0,0-.386,1.465l1.08,1.851a1.072,1.072,0,0,0,1.465.386L30.9,19.254l2.934,2.614-6.5,2.866a1.072,1.072,0,0,0,0,1.961l6.588,2.9-3.023,1.711-6.619-3.854a1.071,1.071,0,0,0-1.465.386l-1.08,1.851a1.071,1.071,0,0,0,.386,1.465l4.492,2.615L21.871,36.5a1.07,1.07,0,0,0-.393,1.464l1.074,1.856a1.076,1.076,0,0,0,1.467.392l4.743-2.725.005,5.195a1.071,1.071,0,0,0,1.076,1.067l2.143-.01a1.071,1.071,0,0,0,1.067-1.076l-.011-7.635,3.292-1.864.006,6.365a1.071,1.071,0,0,0,1.708.971l4.715-3.263v4.383l-6.654,3.809a1.071,1.071,0,0,0-.4,1.462l1.063,1.86a1.071,1.071,0,0,0,1.462.4l4.527-2.592v3.8a1.071,1.071,0,0,0,1.071,1.071h2.143a1.071,1.071,0,0,0,1.071-1.071v-3.82l4.527,2.608a1.071,1.071,0,0,0,1.462-.4l1.063-1.86a1.071,1.071,0,0,0-.4-1.462L47.048,41.6V37.254l4.669,3.219a1.07,1.07,0,0,0,.647.218.186.186,0,0,0,.042,0,1.071,1.071,0,0,0,1.071-1.071V32.983l3.278,2.9-.028,7.68a1.071,1.071,0,0,0,1.067,1.076l2.142.01a1.072,1.072,0,0,0,1.076-1.067l.019-5.242,4.76,2.735a1.076,1.076,0,0,0,1.467-.392l1.074-1.856A1.07,1.07,0,0,0,67.939,37.36Z" transform="translate(-21.333)" fill="#ebebeb"/></g></g><g transform="translate(2625.667 1021.818)"><g transform="translate(21.333)"><path d="M67.939,37.36,63.2,34.639l4.457-2.58a1.072,1.072,0,0,0,.386-1.465l-1.08-1.851a1.072,1.072,0,0,0-1.465-.386l-6.588,3.816-2.934-2.614,6.5-2.866a1.072,1.072,0,0,0,0-1.961l-6.588-2.9,3.023-1.711,6.619,3.854A1.071,1.071,0,0,0,67,23.587l1.079-1.851a1.071,1.071,0,0,0-.386-1.465L63.2,17.656l4.738-2.722a1.07,1.07,0,0,0,.393-1.464l-1.074-1.856a1.076,1.076,0,0,0-1.467-.392l-4.743,2.725-.005-5.195a1.071,1.071,0,0,0-1.076-1.067l-2.143.01a1.071,1.071,0,0,0-1.067,1.076l.011,7.635-3.292,1.864L53.47,11.9a1.071,1.071,0,0,0-1.708-.971L47.048,14.2V9.814L53.7,6.005a1.071,1.071,0,0,0,.4-1.462l-1.063-1.86a1.071,1.071,0,0,0-1.462-.4L47.048,4.876v-3.8A1.072,1.072,0,0,0,45.976,0H43.834a1.072,1.072,0,0,0-1.071,1.071V4.892L38.235,2.284a1.071,1.071,0,0,0-1.462.4L35.71,4.543a1.071,1.071,0,0,0,.4,1.462l6.654,3.829v4.341l-4.669-3.219a1.07,1.07,0,0,0-.647-.218.186.186,0,0,0-.042,0,1.071,1.071,0,0,0-1.071,1.071v6.635l-3.278-2.9.028-7.68a1.071,1.071,0,0,0-1.067-1.076l-2.142-.01A1.072,1.072,0,0,0,28.8,7.85l-.019,5.242-4.76-2.735a1.076,1.076,0,0,0-1.467.392l-1.074,1.856a1.07,1.07,0,0,0,.393,1.464l4.735,2.72-4.457,2.58a1.072,1.072,0,0,0-.386,1.465l1.08,1.851a1.072,1.072,0,0,0,1.465.386L30.9,19.254l2.934,2.614-6.5,2.866a1.072,1.072,0,0,0,0,1.961l6.588,2.9-3.023,1.711-6.619-3.854a1.071,1.071,0,0,0-1.465.386l-1.08,1.851a1.071,1.071,0,0,0,.386,1.465l4.492,2.615L21.871,36.5a1.07,1.07,0,0,0-.393,1.464l1.074,1.856a1.076,1.076,0,0,0,1.467.392l4.743-2.725.005,5.195a1.071,1.071,0,0,0,1.076,1.067l2.143-.01a1.071,1.071,0,0,0,1.067-1.076l-.011-7.635,3.292-1.864.006,6.365a1.071,1.071,0,0,0,1.708.971l4.715-3.263v4.383l-6.654,3.809a1.071,1.071,0,0,0-.4,1.462l1.063,1.86a1.071,1.071,0,0,0,1.462.4l4.527-2.592v3.8a1.071,1.071,0,0,0,1.071,1.071h2.143a1.071,1.071,0,0,0,1.071-1.071v-3.82l4.527,2.608a1.071,1.071,0,0,0,1.462-.4l1.063-1.86a1.071,1.071,0,0,0-.4-1.462L47.048,41.6V37.254l4.669,3.219a1.07,1.07,0,0,0,.647.218.186.186,0,0,0,.042,0,1.071,1.071,0,0,0,1.071-1.071V32.983l3.278,2.9-.028,7.68a1.071,1.071,0,0,0,1.067,1.076l2.142.01a1.072,1.072,0,0,0,1.076-1.067l.019-5.242,4.76,2.735a1.076,1.076,0,0,0,1.467-.392l1.074-1.856A1.07,1.07,0,0,0,67.939,37.36Z" transform="translate(-21.333)" fill="#ebebeb"/></g></g><g transform="translate(2625.667 1298.818)"><g transform="translate(21.333)"><path d="M67.939,37.36,63.2,34.639l4.457-2.58a1.072,1.072,0,0,0,.386-1.465l-1.08-1.851a1.072,1.072,0,0,0-1.465-.386l-6.588,3.816-2.934-2.614,6.5-2.866a1.072,1.072,0,0,0,0-1.961l-6.588-2.9,3.023-1.711,6.619,3.854A1.071,1.071,0,0,0,67,23.587l1.079-1.851a1.071,1.071,0,0,0-.386-1.465L63.2,17.656l4.738-2.722a1.07,1.07,0,0,0,.393-1.464l-1.074-1.856a1.076,1.076,0,0,0-1.467-.392l-4.743,2.725-.005-5.195a1.071,1.071,0,0,0-1.076-1.067l-2.143.01a1.071,1.071,0,0,0-1.067,1.076l.011,7.635-3.292,1.864L53.47,11.9a1.071,1.071,0,0,0-1.708-.971L47.048,14.2V9.814L53.7,6.005a1.071,1.071,0,0,0,.4-1.462l-1.063-1.86a1.071,1.071,0,0,0-1.462-.4L47.048,4.876v-3.8A1.072,1.072,0,0,0,45.976,0H43.834a1.072,1.072,0,0,0-1.071,1.071V4.892L38.235,2.284a1.071,1.071,0,0,0-1.462.4L35.71,4.543a1.071,1.071,0,0,0,.4,1.462l6.654,3.829v4.341l-4.669-3.219a1.07,1.07,0,0,0-.647-.218.186.186,0,0,0-.042,0,1.071,1.071,0,0,0-1.071,1.071v6.635l-3.278-2.9.028-7.68a1.071,1.071,0,0,0-1.067-1.076l-2.142-.01A1.072,1.072,0,0,0,28.8,7.85l-.019,5.242-4.76-2.735a1.076,1.076,0,0,0-1.467.392l-1.074,1.856a1.07,1.07,0,0,0,.393,1.464l4.735,2.72-4.457,2.58a1.072,1.072,0,0,0-.386,1.465l1.08,1.851a1.072,1.072,0,0,0,1.465.386L30.9,19.254l2.934,2.614-6.5,2.866a1.072,1.072,0,0,0,0,1.961l6.588,2.9-3.023,1.711-6.619-3.854a1.071,1.071,0,0,0-1.465.386l-1.08,1.851a1.071,1.071,0,0,0,.386,1.465l4.492,2.615L21.871,36.5a1.07,1.07,0,0,0-.393,1.464l1.074,1.856a1.076,1.076,0,0,0,1.467.392l4.743-2.725.005,5.195a1.071,1.071,0,0,0,1.076,1.067l2.143-.01a1.071,1.071,0,0,0,1.067-1.076l-.011-7.635,3.292-1.864.006,6.365a1.071,1.071,0,0,0,1.708.971l4.715-3.263v4.383l-6.654,3.809a1.071,1.071,0,0,0-.4,1.462l1.063,1.86a1.071,1.071,0,0,0,1.462.4l4.527-2.592v3.8a1.071,1.071,0,0,0,1.071,1.071h2.143a1.071,1.071,0,0,0,1.071-1.071v-3.82l4.527,2.608a1.071,1.071,0,0,0,1.462-.4l1.063-1.86a1.071,1.071,0,0,0-.4-1.462L47.048,41.6V37.254l4.669,3.219a1.07,1.07,0,0,0,.647.218.186.186,0,0,0,.042,0,1.071,1.071,0,0,0,1.071-1.071V32.983l3.278,2.9-.028,7.68a1.071,1.071,0,0,0,1.067,1.076l2.142.01a1.072,1.072,0,0,0,1.076-1.067l.019-5.242,4.76,2.735a1.076,1.076,0,0,0,1.467-.392l1.074-1.856A1.07,1.07,0,0,0,67.939,37.36Z" transform="translate(-21.333)" fill="#ebebeb"/></g></g><g transform="translate(2732.667 1212.818)"><g transform="translate(21.333)"><path d="M67.939,37.36,63.2,34.639l4.457-2.58a1.072,1.072,0,0,0,.386-1.465l-1.08-1.851a1.072,1.072,0,0,0-1.465-.386l-6.588,3.816-2.934-2.614,6.5-2.866a1.072,1.072,0,0,0,0-1.961l-6.588-2.9,3.023-1.711,6.619,3.854A1.071,1.071,0,0,0,67,23.587l1.079-1.851a1.071,1.071,0,0,0-.386-1.465L63.2,17.656l4.738-2.722a1.07,1.07,0,0,0,.393-1.464l-1.074-1.856a1.076,1.076,0,0,0-1.467-.392l-4.743,2.725-.005-5.195a1.071,1.071,0,0,0-1.076-1.067l-2.143.01a1.071,1.071,0,0,0-1.067,1.076l.011,7.635-3.292,1.864L53.47,11.9a1.071,1.071,0,0,0-1.708-.971L47.048,14.2V9.814L53.7,6.005a1.071,1.071,0,0,0,.4-1.462l-1.063-1.86a1.071,1.071,0,0,0-1.462-.4L47.048,4.876v-3.8A1.072,1.072,0,0,0,45.976,0H43.834a1.072,1.072,0,0,0-1.071,1.071V4.892L38.235,2.284a1.071,1.071,0,0,0-1.462.4L35.71,4.543a1.071,1.071,0,0,0,.4,1.462l6.654,3.829v4.341l-4.669-3.219a1.07,1.07,0,0,0-.647-.218.186.186,0,0,0-.042,0,1.071,1.071,0,0,0-1.071,1.071v6.635l-3.278-2.9.028-7.68a1.071,1.071,0,0,0-1.067-1.076l-2.142-.01A1.072,1.072,0,0,0,28.8,7.85l-.019,5.242-4.76-2.735a1.076,1.076,0,0,0-1.467.392l-1.074,1.856a1.07,1.07,0,0,0,.393,1.464l4.735,2.72-4.457,2.58a1.072,1.072,0,0,0-.386,1.465l1.08,1.851a1.072,1.072,0,0,0,1.465.386L30.9,19.254l2.934,2.614-6.5,2.866a1.072,1.072,0,0,0,0,1.961l6.588,2.9-3.023,1.711-6.619-3.854a1.071,1.071,0,0,0-1.465.386l-1.08,1.851a1.071,1.071,0,0,0,.386,1.465l4.492,2.615L21.871,36.5a1.07,1.07,0,0,0-.393,1.464l1.074,1.856a1.076,1.076,0,0,0,1.467.392l4.743-2.725.005,5.195a1.071,1.071,0,0,0,1.076,1.067l2.143-.01a1.071,1.071,0,0,0,1.067-1.076l-.011-7.635,3.292-1.864.006,6.365a1.071,1.071,0,0,0,1.708.971l4.715-3.263v4.383l-6.654,3.809a1.071,1.071,0,0,0-.4,1.462l1.063,1.86a1.071,1.071,0,0,0,1.462.4l4.527-2.592v3.8a1.071,1.071,0,0,0,1.071,1.071h2.143a1.071,1.071,0,0,0,1.071-1.071v-3.82l4.527,2.608a1.071,1.071,0,0,0,1.462-.4l1.063-1.86a1.071,1.071,0,0,0-.4-1.462L47.048,41.6V37.254l4.669,3.219a1.07,1.07,0,0,0,.647.218.186.186,0,0,0,.042,0,1.071,1.071,0,0,0,1.071-1.071V32.983l3.278,2.9-.028,7.68a1.071,1.071,0,0,0,1.067,1.076l2.142.01a1.072,1.072,0,0,0,1.076-1.067l.019-5.242,4.76,2.735a1.076,1.076,0,0,0,1.467-.392l1.074-1.856A1.07,1.07,0,0,0,67.939,37.36Z" transform="translate(-21.333)" fill="#ebebeb"/></g></g></g></svg>