<svg xmlns="http://www.w3.org/2000/svg" xmlns:xlink="http://www.w3.org/1999/xlink" width="901" height="900" viewBox="0 0 901 900"><defs><filter id="a" x="260.454" y="173.236" width="378.864" height="559.527" filterUnits="userSpaceOnUse"><feOffset dy="3" input="SourceAlpha"/><feGaussianBlur stdDeviation="3" result="b"/><feFlood flood-opacity="0.302"/><feComposite operator="in" in2="b"/><feComposite in="SourceGraphic"/></filter><linearGradient id="c" x1="0.5" x2="0.5" y2="1" gradientUnits="objectBoundingBox"><stop offset="0" stop-color="#facb62"/><stop offset="1" stop-color="#ef5464"/></linearGradient><filter id="d" x="607.813" y="150.59" width="204.348" height="134.391" filterUnits="userSpaceOnUse"><feOffset input="SourceAlpha"/><feGaussianBlur stdDeviation="3" result="e"/><feFlood flood-opacity="0.161"/><feComposite operator="in" in2="e"/><feComposite in="SourceGraphic"/></filter><filter id="f" x="170.875" y="209.065" width="222.75" height="262.726" filterUnits="userSpaceOnUse"><feOffset dy="3" input="SourceAlpha"/><feGaussianBlur stdDeviation="3" result="g"/><feFlood flood-opacity="0.502"/><feComposite operator="in" in2="g"/><feComposite in="SourceGraphic"/></filter><filter id="h" x="609.627" y="208.759" width="120.298" height="211.792" filterUnits="userSpaceOnUse"><feOffset dy="3" input="SourceAlpha"/><feGaussianBlur stdDeviation="3" result="i"/><feFlood flood-opacity="0.502"/><feComposite operator="in" in2="i"/><feComposite in="SourceGraphic"/></filter><filter id="j" x="508.741" y="391.191" width="201.043" height="318.762" filterUnits="userSpaceOnUse"><feOffset dy="3" input="SourceAlpha"/><feGaussianBlur stdDeviation="3" result="k"/><feFlood flood-opacity="0.502"/><feComposite operator="in" in2="k"/><feComposite in="SourceGraphic"/></filter><filter id="l" x="192.19" y="459.909" width="202.771" height="252.056" filterUnits="userSpaceOnUse"><feOffset dy="3" input="SourceAlpha"/><feGaussianBlur stdDeviation="3" result="m"/><feFlood flood-opacity="0.502"/><feComposite operator="in" in2="m"/><feComposite in="SourceGraphic"/></filter><clipPath id="n"><g transform="matrix(1, 0, 0, 1, 0, 0)" filter="url(#a)"><path d="M2242.5,1303.482c3.485,3.661,136.076-56.145,136.044-26.279l2.575,432.938s22.88,11.053,42.1,11.053,46.409-13.478,46.409-13.478l-1.739-430.513c.478-27.362,120.06,32.065,126.458,27.818s13.86-93.675-8.422-99.617c0,0-74.7-24.8-162.707-25.232s-173.611,27.766-173.611,27.766C2239.505,1210.632,2239.017,1299.82,2242.5,1303.482Z" transform="translate(-2240.54 -1180.17)" fill="none" stroke="#707070" stroke-linejoin="round" stroke-width="0.5"/></g></clipPath></defs><g transform="translate(-5303 -286)"><rect width="900" height="900" transform="translate(5303 286)" fill="url(#c)"/><g transform="translate(5345.925 682.425)"><path d="M535.191-637.064s-47.515,10.211-56.548,59.3l17.278-22.383s-23.953,31.415-8.639,64.4c0,0,0-23.561,4.32-31.807,0,0-1.178,40.054,41.233,57.725,0,0-15.314-27.1-17.278-45.159,0,0,13.351,21.205,26.31,27.1,0,0-27.488-25.525-20.026-64.794l7.46,12.174s-11.387-33.772,5.891-56.547" transform="translate(-424.076 745.879)" fill="#0e0e37"/><path d="M524.154-641.339s-34.319-34.411-80.473-15.417l28.173,2.4s-39.382-3.121-58.815,27.62c0,0,19.806-12.761,29.078-13.6,0,0-34.308,20.7-26.193,65.926,0,0,14.483-27.549,28.6-38.984,0,0-10.593,22.709-8.527,36.792,0,0,6.569-36.932,43.619-51.929l-6.192,12.866s22.22-27.865,50.725-25.677" transform="translate(-413.039 750.154)" fill="#0e0e37"/><path d="M527.151-654.394s7.93-41.7-28.5-65.647l12.138,21.508s-17.137-29.949-48.882-28.834c0,0,18.957,8.006,24.125,14.284,0,0-31.828-14.558-60.456,13.562,0,0,27-3.116,42.207,1.442,0,0-21.6,3.538-30.742,11.963,0,0,29.878-13.445,58.938,5.9l-12.33,1.866s31.042,2.312,43.5,23.953" transform="translate(-415.149 761.076)" fill="#0e0e37"/><path d="M559.855-645.576s41.617-25.1,81.814,4.485l-27.919-4.478s38.968,6.489,50.4,41.013c0,0-16.136-17.17-24.93-20.221,0,0,28.287,28.382,9.484,70.3,0,0-7.395-30.233-18.334-44.741,0,0,4.792,24.6-.618,37.763,0,0,2.552-37.425-29.778-60.931l2.9,13.98s-14.829-32.407-43.017-37.173" transform="translate(-437.74 748.982)" fill="#0e0e37"/><path d="M559.855-657.16s1.442-48.578,48.083-66.344L589.051-702.46s26.561-29.245,61.773-20.152c0,0-23.172,4.264-30.5,10,0,0,39.18-8.407,64.234,30.105,0,0-29.42-10.159-47.54-8.821,0,0,23.271,9.293,31.409,20.972,0,0-30.079-22.415-67.349-7.97l13.324,5.135s-35.274-5.088-54.548,16.026" transform="translate(-437.74 760.566)" fill="#0e0e37"/><path d="M552.048-665.429s-34.336-24.957-24.19-67.352l5.883,23.986s-8.021-33.56,15.875-54.487c0,0-8.332,18.816-7.8,26.93,0,0,13.223-32.405,53.342-31.519,0,0-21.813,16.223-29.769,29.954,0,0,18.162-12.212,30.594-12.334,0,0-30.979,10.664-38.908,44.663l10.264-7.083s-21.037,22.943-15.293,47.243" transform="translate(-432.041 767.889)" fill="#0e0e37"/><path d="M571.445-649.452a13.023,13.023,0,0,1-13.023,13.022A13.023,13.023,0,0,1,545.4-649.452a13.023,13.023,0,0,1,13.022-13.022,13.023,13.023,0,0,1,13.023,13.022" transform="translate(-435.308 750.154)" fill="#0e0e37"/><path d="M548.261-634.186a15.806,15.806,0,0,1-15.806,15.806,15.806,15.806,0,0,1-15.805-15.806,15.806,15.806,0,0,1,15.805-15.806,15.806,15.806,0,0,1,15.806,15.806" transform="translate(-430.471 748.054)" fill="#0e0e37"/><path d="M568.137-620.607a10.383,10.383,0,0,1-10.382,10.384,10.383,10.383,0,0,1-10.383-10.384,10.383,10.383,0,0,1,10.383-10.383,10.382,10.382,0,0,1,10.382,10.383" transform="translate(-435.639 744.857)" fill="#0e0e37"/><path d="M584.282-633.108a9.62,9.62,0,0,1-9.621,9.621,9.621,9.621,0,0,1-9.621-9.621,9.621,9.621,0,0,1,9.621-9.621,9.62,9.62,0,0,1,9.621,9.621" transform="translate(-438.612 746.832)" fill="#0e0e37"/><path d="M546.629-636.083s78.98,130.934,50.263,279.108h36.65s5.068-184.864-79.669-287.729l-7.245,8.62" transform="translate(-435.515 747.164)" fill="#0e0e37"/></g><path d="M812.546-566.731s31.514,6.771,37.5,39.327l-11.46-14.846s15.888,20.836,5.73,42.713c0,0,0-15.626-2.865-21.1,0,0,.781,26.565-27.347,38.286,0,0,10.157-17.971,11.46-29.952,0,0-8.855,14.065-17.45,17.971,0,0,18.231-16.929,13.284-42.974l-4.949,8.074s7.553-22.4-3.907-37.5" transform="translate(5225.545 1443.726)" fill="#0e0e37"/><path d="M814.475-572.84s22.762-22.823,53.373-10.226l-18.686,1.593s26.12-2.07,39.009,18.319c0,0-13.136-8.464-19.285-9.019,0,0,22.755,13.732,17.371,43.725,0,0-9.605-18.272-18.971-25.856,0,0,7.027,15.062,5.655,24.4,0,0-4.356-24.495-28.93-34.442l4.106,8.533s-14.737-18.481-33.642-17.03" transform="translate(5223.615 1449.835)" fill="#0e0e37"/><path d="M813.419-589.865s-5.26-27.658,18.9-43.539l-8.052,14.265S835.635-639,856.689-638.263c0,0-12.573,5.31-16,9.474,0,0,21.11-9.656,40.1,8.994,0,0-17.911-2.066-27.993.957,0,0,14.325,2.346,20.388,7.935,0,0-19.816-8.917-39.09,3.914l8.178,1.238s-20.589,1.533-28.85,15.887" transform="translate(5224.082 1465.445)" fill="#0e0e37"/><path d="M773.852-574.754s-27.6-16.647-54.262,2.974l18.517-2.97s-25.846,4.3-33.426,27.2c0,0,10.7-11.388,16.535-13.411,0,0-18.762,18.823-6.291,46.626,0,0,4.9-20.051,12.161-29.673,0,0-3.179,16.313.409,25.046,0,0-1.692-24.822,19.75-40.412l-1.923,9.272s9.835-21.494,28.53-24.654" transform="translate(5256.943 1448.161)" fill="#0e0e37"/><path d="M767.951-591.308s-.956-32.219-31.89-44l12.526,13.957s-17.617-19.4-40.971-13.365c0,0,15.368,2.828,20.23,6.636,0,0-25.986-5.576-42.6,19.966,0,0,19.512-6.737,31.531-5.849,0,0-15.435,6.163-20.832,13.909,0,0,19.949-14.866,44.668-5.286l-8.836,3.405s23.4-3.375,36.177,10.63" transform="translate(5262.843 1464.716)" fill="#0e0e37"/><path d="M793.306-602.4s22.773-16.552,16.043-44.67l-3.9,15.908s5.319-22.258-10.529-36.138c0,0,5.526,12.479,5.171,17.861,0,0-8.77-21.493-35.379-20.9,0,0,14.468,10.76,19.744,19.867,0,0-12.046-8.1-20.291-8.181,0,0,20.546,7.072,25.806,29.622l-6.809-4.7s13.953,15.217,10.144,31.333" transform="translate(5238.887 1475.181)" fill="#0e0e37"/><path d="M790.646-578.222a8.637,8.637,0,0,0,8.637,8.637,8.637,8.637,0,0,0,8.637-8.637,8.637,8.637,0,0,0-8.637-8.637,8.637,8.637,0,0,0-8.637,8.637" transform="translate(5230.848 1449.835)" fill="#0e0e37"/><path d="M808.118-566.488A10.484,10.484,0,0,0,818.6-556a10.483,10.483,0,0,0,10.483-10.483A10.483,10.483,0,0,0,818.6-576.971a10.483,10.483,0,0,0-10.483,10.483" transform="translate(5225.545 1446.834)" fill="#0e0e37"/><path d="M794.111-555.033A6.887,6.887,0,0,0,801-548.146a6.886,6.886,0,0,0,6.886-6.887A6.886,6.886,0,0,0,801-561.919a6.887,6.887,0,0,0-6.887,6.886" transform="translate(5229.797 1442.265)" fill="#0e0e37"/><path d="M781.567-564.837a6.38,6.38,0,0,0,6.38,6.38,6.381,6.381,0,0,0,6.381-6.38,6.382,6.382,0,0,0-6.381-6.381,6.381,6.381,0,0,0-6.38,6.381" transform="translate(5233.604 1445.088)" fill="#0e0e37"/><path d="M789.334-567.065S736.951-480.224,756-381.949H731.689s-3.362-122.609,52.839-190.833l4.805,5.717" transform="translate(5248.756 1445.563)" fill="#0e0e37"/><path d="M10786,1037.55s127.287,36.161,226.5,34.307,108.555-21.754,151.846-21.255,77.6,65.689,118.4,68.471,126.1-58.557,194-59.2,91.295,26.39,136.589,26.818,71.4-23.18,71.4-23.18V1185.9H10786Z" transform="translate(-5482)" fill="#0e0e37"/><g transform="translate(0 -792)"><rect width="900" height="900" transform="translate(5304 1078)" fill="none"/></g><path d="M11094.316,321.74c.853,17.6,15.9,28.393,27.541,28.961s120.956.852,129.473.568,28.961-9.37,29.246-31.233c.122-9.445-7.266-22.023-15.9-26.974-11.2-6.422-24.418-3.691-24.418-3.691s9.37-24.7-14.764-45.713c-10.668-9.287-32.279-11.458-44.862-4.827-15.661,8.255-21.293,27.257-21.293,27.257s-13.914-11.925-27.543-2.271-6.813,25.554-6.813,25.554-11.062,1.1-18.172,6.246C11099.044,301.236,11093.464,311.234,11094.316,321.74Z" transform="translate(-5267.592 190.21)" fill="#fbd28c"/><g transform="matrix(1, 0, 0, 1, 5303, 286)" filter="url(#d)"><path d="M11094.316,321.74c.853,17.6,15.9,28.393,27.541,28.961s120.956.852,129.473.568,28.961-9.37,29.246-31.233c.122-9.445-7.266-22.023-15.9-26.974-11.2-6.422-24.418-3.691-24.418-3.691s9.37-24.7-14.764-45.713c-10.668-9.287-32.279-11.458-44.862-4.827-15.661,8.255-21.293,27.257-21.293,27.257s-13.914-11.925-27.543-2.271-6.813,25.554-6.813,25.554-11.062,1.1-18.172,6.246C11099.044,301.236,11093.464,311.234,11094.316,321.74Z" transform="translate(-10477.42 -75.4)" fill="#fbd28c"/></g><path d="M11094.308,313.628c.772,15.958,14.413,25.738,24.966,26.253s109.646.772,117.366.515,26.253-8.494,26.511-28.312c.111-8.562-6.586-19.963-14.414-24.451-10.151-5.822-22.135-3.346-22.135-3.346s8.494-22.392-13.383-41.439c-9.671-8.418-29.262-10.387-40.668-4.375-14.2,7.483-19.3,24.709-19.3,24.709s-12.613-10.81-24.968-2.059-6.176,23.164-6.176,23.164-10.027,1-16.473,5.662C11098.593,295.041,11093.535,304.1,11094.308,313.628Z" transform="translate(-5756 94.21)" fill="#fbd28c"/><path d="M11094.308,313.628c.772,15.958,14.413,25.738,24.966,26.253s109.646.772,117.366.515,26.253-8.494,26.511-28.312c.111-8.562-6.586-19.963-14.414-24.451-10.151-5.822-22.135-3.346-22.135-3.346s8.494-22.392-13.383-41.439c-9.671-8.418-29.262-10.387-40.668-4.375-14.2,7.483-19.3,24.709-19.3,24.709s-12.613-10.81-24.968-2.059-6.176,23.164-6.176,23.164-10.027,1-16.473,5.662C11098.593,295.041,11093.535,304.1,11094.308,313.628Z" transform="translate(-5680.539 142.898)" fill="#fbd28c"/><g transform="translate(5335.891 316.32)"><g transform="translate(147.096 184.539)"><g transform="matrix(1, 0, 0, 1, -179.99, -214.86)" filter="url(#f)"><path d="M2307.9,1184.286s-18.858,112.49,13.149,132.086,112.581,40.259,112.581,40.259v72.181s-183.9-35.151-191.539-48.385-15.534-150.908-12.224-160.413S2307.9,1184.286,2307.9,1184.286Z" transform="translate(-2049.11 -969.12)" fill="#ebebeb" stroke="rgba(112,112,112,0.12)" stroke-linejoin="round" stroke-width="0.2"/></g><g transform="matrix(1, 0, 0, 1, -179.99, -214.86)" filter="url(#h)"><path d="M2305.154,1185.251c8.324,32.706,11.364,81.75-23.222,159.052,0,0,2.619,8.5,37.406,22.42s50.634,11.983,50.634,11.983c3.865-12.756,11.055-63.621,13.063-94.466s1.079-29.77,0-62.317C2382.7,1211.717,2305.154,1185.251,2305.154,1185.251Z" transform="translate(-1663.21 -970.39)" fill="#ebebeb" stroke="rgba(112,112,112,0.12)" stroke-linejoin="round" stroke-width="0.2"/></g><g transform="matrix(1, 0, 0, 1, -179.99, -214.86)" filter="url(#j)"><path d="M2269.284,1209.594l182.843,47.45c-27.457,105.384-83.738,196.333-182.843,253.112v-94.532c76.942-43.29,86.925-111.551,86.925-111.551l-86.925-20.772Z" transform="translate(-1751.44 -812.3)" fill="#ebebeb" stroke="rgba(112,112,112,0.12)" stroke-linejoin="round" stroke-width="0.2"/></g><g transform="matrix(1, 0, 0, 1, -179.99, -214.86)" filter="url(#l)"><path d="M2417.128,1355.521v95.863c-48.5-25.313-150.606-77.735-184.572-233.856l95.583,24.284C2324.544,1319.742,2417.128,1355.521,2417.128,1355.521Z" transform="translate(-2031.27 -751.52)" fill="#ebebeb" stroke="rgba(112,112,112,0.12)" stroke-linejoin="round" stroke-width="0.2"/></g></g><g transform="translate(236.825 149.167)" clip-path="url(#n)"><g transform="translate(-41.222 -47.728)" fill="#e05858" stroke="#707070" stroke-width="1"><rect width="564.274" height="614.995" stroke="none"/><rect x="0.5" y="0.5" width="563.274" height="613.995" fill="none"/></g><g transform="translate(-40.705 -57.138)"><path d="M2573.332,1208.785l-62.709-35.117-97.374,81.342,143.736,29.425Z" transform="translate(-2297.16 -1172.562)" fill="#ff3b3b"/><path d="M2463.4,1220.985l40.639,243.8-82.158-7.532Z" transform="translate(-2231.035 -811.895)" fill="#ff2828"/><path d="M2427.991,1323.585l104.673,33.089,1.678-118.017-115.5-32.788Z" transform="translate(-2254.304 -927.107)" fill="#e05858"/><path d="M2524.668,1322.706l-43.226-51.457L2419,1244.61l3.891-42.807,165.816,48.271Z" transform="translate(-2253.089 -958.105)" fill="#ff2828"/><path d="M2529.388,1318.095l-116.645-122.5,314.6,42.149Z" transform="translate(-2301.035 -1005.406)" fill="#ff3b3b"/><path d="M2424.456,1300.369l59.969-56.342-64.953-25.274Z" transform="translate(-2249.486 -828.901)" fill="#ff6262"/><path d="M2449.986,1453.476l27.277-160.7,11.869-66.084-1.045-5.188-69.52,69.661v162.316Z" transform="translate(-2256.416 -807.965)" fill="#e05858"/><path d="M2449.988,1369.88l17.95-15.936,5.274-118.051-46.617-14.359Z" transform="translate(-2194.916 -807.707)" fill="#ff3b3b"/><path d="M2443.362,1343.458h34.169l-30.65-106.589-17.61,16.164Z" transform="translate(-2174.409 -690.808)" fill="#ff5353"/><path d="M2429.356,1241.267l17.954-62.394,281.538,21.46-71.816,172.984Z" transform="translate(-2173.756 -1132.896)" fill="#ff2828"/><path d="M2431.658,1304.678l92.174-48.543,95.121-82.594L2399.846,1184.8Z" transform="translate(-2399.846 -1173.54)" fill="#e05858"/><path d="M2439.968,1183.119l133.2,25.455-162.342,80.807Z" transform="translate(-2315.686 -1100.525)" fill="#ff2828"/><path d="M2410.816,1266.843l162.156-80.83L2808.6,1322.4Z" transform="translate(-2315.804 -1078.472)" fill="#e05858"/><path d="M2403.344,1239.078l4.484,84.667h57.063l43.708-141.794Z" transform="translate(-2373.042 -1109.432)" fill="#ff3535"/></g></g></g></g></svg>