<svg xmlns="http://www.w3.org/2000/svg" xmlns:xlink="http://www.w3.org/1999/xlink" width="512" height="512" viewBox="0 0 512 512"><defs><clipPath id="a"><path d="M2241.672,1251.144c2.006,2.108,78.322-32.316,78.3-15.125l1.483,249.187s13.169,6.362,24.23,6.362,26.712-7.757,26.712-7.757l-1-247.792c.275-15.749,69.1,18.456,72.786,16.011s7.977-53.917-4.848-57.337c0,0-43-14.276-93.65-14.523s-99.925,15.981-99.925,15.981C2239.947,1197.7,2239.666,1249.036,2241.672,1251.144Z" transform="translate(-2240.545 -1180.167)" fill="none" stroke="#707070" stroke-linejoin="round" stroke-width="0.5"/></clipPath><clipPath id="c"><rect width="512" height="512"/></clipPath></defs><g id="b" clip-path="url(#c)"><rect width="512" height="512" fill="#ffede1"/><g transform="translate(-4908.11 -570.372)"><g transform="translate(4906.11 835.782)"><path d="M10388.306,1861.077s6.846-8.922,27.259-7.819,33.251,11.108,61.479,28.151,41.408,28.717,71.234,28.717,47.364-9.7,66.914-16.029,45.561-18.218,72.434-17.576,54.857,16.51,74.031,34.086,40.546,36.992,55.662,43.612l-429.013.593Z" transform="translate(-10386.771 -1707.008)" fill="#461a0f"/><path d="M10388.918,1714.389s37.917,46.43,34.934,66.943c-1.575,10.831-5.67,34.81-8.018,51.457a158.157,158.157,0,0,0-1.865,22.761l-25.051-22.761Z" transform="translate(-10388.056 -1714.389)" fill="#ab3b15"/><path d="M10451.97,1772.623s-16.595,19.953-22.189,39.906-3.73,27.039-1.492,33.006,26.293,60.418,28.9,67.878c1.524,4.356,3.714,9.745,4.294,12.8l1.313,1.545s-.573-53.13-2.811-65.251-7.646-25.361-7.646-40.466S10451.97,1772.623,10451.97,1772.623Z" transform="translate(-10385.593 -1710.528)" fill="#ab3b15"/><path d="M10465.576,1805.151s11.959,32.422,15.6,51.952,1.672,31.028,2.428,45.792,9.945,27.009,12.742,31.671,11.043,22.4,11.043,22.4-3.617-12.856-4.145-18.323.977-25.582,2.76-33.985,3.873-26.126,3.619-33.426-2.123-24.445-10.525-36.583a82.958,82.958,0,0,0-23.342-22.747C10470.748,1808.849,10465.576,1805.151,10465.576,1805.151Z" transform="translate(-10382.975 -1708.372)" fill="#ab3b15"/><path d="M10524.693,1950.616a199.841,199.841,0,0,1,3.545-23.893c2.424-10.443,8.391-25.734,8.391-25.734a24.556,24.556,0,0,0,2.051,6.9c1.492,2.8,12.494,27.6,14.172,35.431s1.119,8.205,1.119,8.205Z" transform="translate(-10379.055 -1702.019)" fill="#ab3b15"/><path d="M10388.918,1845.025s12.4,7.966,25.555,16.856c0,0,19.658,13.738,20.2,14.176l2.2,4.092s-17.992-9.941-31.045-13.67-16.9-6.535-16.9-6.535Z" transform="translate(-10388.056 -1705.729)" fill="#ac3b13"/><path d="M10388.972,1884.846s7.315.43,19.508,13.771,21.324,22.09,21.324,22.09,11.03,7.788,25.039,15.525,37.981,17.9,37.981,17.9l-4.2,1.031s-29.02-12.687-37.77-17.994-25.379-16.459-25.379-16.459a165.561,165.561,0,0,1-23.881,3.012c-12.479.574-13.484,0-13.484,0Z" transform="translate(-10388.109 -1703.089)" fill="#ab3b15"/><path d="M10412.64,1838.73s11.088,20.5,18.2,32.056,17.955,31.144,23.7,39.958a164.74,164.74,0,0,0,17.105,21.415c3.853,4.048,14.3,15.474,24.354,23.962l-3.33.392s-19.325-18.934-23.374-23.309-12.992-15.343-15.8-19.652-12.992-20.305-15.474-25.333-20.828-36.628-20.828-36.628l-5.353-9.4Z" transform="translate(-10386.537 -1706.146)" fill="#ab3b15"/></g></g><g transform="translate(-4907.549 -911.651)"><g transform="translate(4907.549 896.949)"><path d="M10389.55,1435.236s1.789,4.445,24.283,2.646,48.734-16.381,78.221-39.725,42.6-28.18,115.079-27.029,294.373-1.573,294.373-1.573V1267.883H10389.55Z" transform="translate(-10389.55 -1267.883)" fill="#ffbd6f"/><path d="M10395.768,1268.69a75.509,75.509,0,0,0,38.009,32.38c26.414,9.935,54.545,11.228,79.483,10.662s73.749,2.46,97.174,29.079,34.242,29.041,59.8,32.146,53.488,24.039,71.057,29.363,53.49,9.478,78.512,33.968,32.743,53.149,36.485,65.589,16.5,59.628,20.23,69.744,15.971,39.93,24.489,45.786V1268.69Z" transform="translate(-10389.139 -1268.69)" fill="#ab3b15"/></g></g><path d="M10567.289,1267.318s40.227,41.219,57.086,53.286,32.231,28.265,67.439,27.6,57.19-10.083,67.272-14.05,30.581-17.025,46.282-24.959,37.688-18.678,47.936-20.662" transform="translate(-10336.078 -1272.042)" fill="none" stroke="#fff" stroke-width="2"/><g transform="translate(-46.795 -39.457)"><g transform="translate(147.096 169.526)"><path d="M2274.455,1184.286s-10.854,64.747,7.568,76.025,64.8,23.172,64.8,23.172v41.545s-105.846-20.232-110.244-27.849-8.941-86.858-7.035-92.329S2274.455,1184.286,2274.455,1184.286Z" transform="translate(-2229.096 -1184.11)" fill="#ffbd6f" stroke="rgba(112,112,112,0.12)" stroke-linejoin="round" stroke-width="0.2"/><path d="M2295.3,1185.251c4.791,18.825,6.54,47.053-13.366,91.546,0,0,1.508,4.9,21.53,12.9s29.144,6.9,29.144,6.9c2.225-7.342,6.363-36.619,7.519-54.373s.62-17.134,0-35.868C2339.931,1200.484,2295.3,1185.251,2295.3,1185.251Z" transform="translate(-2029.405 -1185.251)" fill="#ffbd6f" stroke="rgba(112,112,112,0.12)" stroke-linejoin="round" stroke-width="0.2"/><path d="M2269.285,1209.595l105.239,27.311c-15.8,60.656-48.2,113-105.239,145.684v-54.41c44.286-24.917,50.031-64.206,50.031-64.206l-50.031-11.956Z" transform="translate(-2074.824 -1104.592)" fill="#ffbd6f" stroke="rgba(112,112,112,0.12)" stroke-linejoin="round" stroke-width="0.2"/><path d="M2338.791,1296.953v55.176c-27.917-14.569-86.685-44.742-106.235-134.6l55.016,13.977C2285.5,1276.36,2338.791,1296.953,2338.791,1296.953Z" transform="translate(-2220.294 -1072.973)" fill="#ffbd6f" stroke="rgba(112,112,112,0.12)" stroke-linejoin="round" stroke-width="0.2"/></g><g transform="translate(198.741 149.167)" clip-path="url(#a)"><g transform="translate(-23.726 -27.471)" fill="#e05858" stroke="#707070" stroke-width="1"><rect width="324.781" height="353.975" stroke="none"/><rect x="0.5" y="0.5" width="323.781" height="352.975" fill="none"/></g><g transform="translate(-23.429 -32.887)"><path d="M2505.389,1193.881l-36.094-20.212-56.046,46.818,82.73,16.936Z" transform="translate(-2346.431 -1173.031)" fill="#f38200"/><path d="M2445.778,1220.985l23.391,140.327-47.288-4.335Z" transform="translate(-2312.035 -985.524)" fill="#ec7812"/><path d="M2424.108,1273.623l60.247,19.046.966-67.927-66.478-18.872Z" transform="translate(-2324.139 -1045.422)" fill="#f90"/><path d="M2479.821,1271.391l-24.88-29.617L2419,1226.442l2.239-24.639,95.439,27.784Z" transform="translate(-2323.507 -1061.537)" fill="#ec7812"/><path d="M2479.881,1266.1l-67.138-70.506,181.076,24.26Z" transform="translate(-2348.447 -1086.129)" fill="#f38200"/><path d="M2422.341,1265.729l34.516-32.429-37.385-14.547Z" transform="translate(-2321.633 -994.365)" fill="#ffac30"/><path d="M2436.651,1355.019l15.7-92.5,6.832-38.036-.6-2.986-40.014,40.095v93.424Z" transform="translate(-2325.237 -983.481)" fill="#f90"/><path d="M2440.059,1306.918l10.332-9.173,3.036-67.947-26.832-8.264Z" transform="translate(-2293.247 -983.347)" fill="#f38200"/><path d="M2437.381,1298.219h19.667l-17.642-61.349-10.136,9.3Z" transform="translate(-2282.58 -922.572)" fill="#f90"/><path d="M2429.357,1214.785l10.333-35.912,162.046,12.352-41.335,99.565Z" transform="translate(-2282.241 -1152.41)" fill="#ec7812"/><path d="M2418.157,1249.02l53.052-27.94,54.75-47.539-126.112,6.48Z" transform="translate(-2399.846 -1173.541)" fill="#f90"/><path d="M2427.6,1183.12l76.669,14.651-93.439,46.51Z" transform="translate(-2356.068 -1135.581)" fill="#ec7812"/><path d="M2410.816,1232.536l93.333-46.523,135.619,78.5Z" transform="translate(-2356.13 -1124.115)" fill="#f90"/><path d="M2403.344,1214.832l2.581,48.732h32.844l25.157-81.613Z" transform="translate(-2385.903 -1140.211)" fill="#f38200"/></g></g></g><g transform="translate(-85.097 126.696) rotate(-43)"><path d="M10654.3,1268.217l-.326,6.068-3.855-3.359s-2.148,7.1-1.266,11.9a23.749,23.749,0,0,0,4.383,9.853c.8.8-14.736-1.426-14.736-1.426s1.127,7.264,7.549,14.9,10.02,11.32,7.762,13.854-29.357-1.288-29.357-1.288,9.494,13.031,18.338,21.314,16.568,11.609,20.105,15.332a11.739,11.739,0,0,1,3.348,7.938s-10.887-.559-19.451-5.4-9.537-8.871-12.148-9.313-1.006,5.208-1.379,7.325-5.342-6.224-14.209-6.94-22.414,1.818-28.088-3.249a114.7,114.7,0,0,1-8.771-8.579s7.352,15.265,8.283,17.964,3.166,11.821,8.1,14.334a20.652,20.652,0,0,0,9.309,2.327l-7.168,5.119s8.1,3.257,12.564,4,12.494,1.843,12.494,1.843l-12.494,14.445s6.143,1.4,15.637,0,11.822-2.606,16.57-2.141,12.006,3.537,12.191,3.63-4.375,7.912-14.334,13.5a89.514,89.514,0,0,1-20.941,8.1s3.443,3.63,16.66,4,19.547-2.234,19.547-2.234l-1.49,2.234a32.818,32.818,0,0,0,11.355-5.864c5.4-4.375,7.91-6.477,7.91-6.477l1.771,7.873a28.949,28.949,0,0,0,10.424-10.89c4.375-7.725,8-11.635,9.215-11.728l-27.895-128.793S10658.055,1268.23,10654.3,1268.217Z" transform="translate(-10582.197 -1267.872)" fill="#f07203" stroke="rgba(87,40,24,0.27)" stroke-linecap="round" stroke-linejoin="round" stroke-width="1"/><path d="M10707.605,1397.187c1.21-.093,4.26,1.21,12.079,6.423a37.773,37.773,0,0,0,14.914,6.05l-1.49-7.911a47.878,47.878,0,0,0,10.8,2.885,96.62,96.62,0,0,0,12,.652l-2.232-1.675s6.607.372,14.891-3.909,18.523-13.217,18.523-13.217a84.111,84.111,0,0,1-21.874,1.582,47.217,47.217,0,0,1-20.849-6.608s9.185-9.675,19.1-11.382,20.368-7.792,20.368-7.792l-16.567-7.911a130.952,130.952,0,0,0,11.015-7.925c4.189-3.537,9.144-8.371,9.144-8.371l-8.711-1.11s7.261-3.258,8.378-8.656.464-34.252.464-34.252-2.775,17.912-19.242,22.043-19.1,17.7-19.1,17.7-2.234-7.446-4-7.353-6.517,13.124-6.517,13.124-14.426,14.706-16.474,14.055,0-11.076,0-11.076,7.911-11.728,9.4-16.1,10.332-26.713,10.424-31.739a115.7,115.7,0,0,1-13.123,8.377c-6.758,3.6-11.824,7.011-14.426,5.4s.837-9.029,1.861-13.775,1.395-18.057,1.395-18.057l-13.5,7.446s1.491-7.074,0-11.169-2.605-4.561-2.605-4.561h-21.911S10706.554,1397.268,10707.605,1397.187Z" transform="translate(-10592.003 -1267.888)" fill="#e96000" stroke="rgba(87,40,24,0.27)" stroke-linecap="round" stroke-linejoin="round" stroke-width="0.5"/><line x2="26.984" y2="129.521" transform="translate(88.419)" fill="none" stroke="#4f280e" stroke-width="3"/><line x1="33.28" y1="28.783" transform="translate(74.028 63.861)" fill="none" stroke="#4f280e" stroke-linecap="round" stroke-width="3"/><line y1="32.38" x2="35.079" transform="translate(113.604 85.448)" fill="none" stroke="#4f280e" stroke-linecap="round" stroke-width="3"/></g><g transform="translate(331.211 -4.724)"><g transform="translate(10.779)"><path d="M10640.156,1268.217l-.263,4.877-3.1-2.7s-1.727,5.711-1.018,9.563a19.087,19.087,0,0,0,3.523,7.92c.642.641-11.847-1.147-11.847-1.147a27.065,27.065,0,0,0,6.068,11.974c5.161,6.135,8.054,9.1,6.239,11.136s-23.6-1.035-23.6-1.035,7.631,10.474,14.739,17.133,13.319,9.331,16.162,12.324a9.435,9.435,0,0,1,2.691,6.38s-8.752-.449-15.636-4.339-7.666-7.13-9.766-7.486-.808,4.186-1.107,5.888-4.294-5-11.422-5.578-18.018,1.461-22.578-2.612a92.347,92.347,0,0,1-7.051-6.9s5.91,12.27,6.658,14.44,2.545,9.5,6.51,11.522a16.6,16.6,0,0,0,7.481,1.87l-5.762,4.115a67.548,67.548,0,0,0,10.1,3.217c3.592.6,10.042,1.482,10.042,1.482l-10.042,11.611a37.512,37.512,0,0,0,12.569,0c7.632-1.122,9.5-2.095,13.318-1.721s9.65,2.843,9.8,2.918-3.516,6.359-11.521,10.849a71.944,71.944,0,0,1-16.833,6.509s2.768,2.918,13.392,3.217,15.712-1.8,15.712-1.8l-1.2,1.8a26.384,26.384,0,0,0,9.128-4.714c4.339-3.516,6.358-5.206,6.358-5.206l1.423,6.328a23.261,23.261,0,0,0,8.379-8.754c3.517-6.21,6.434-9.352,7.407-9.427l-22.422-103.527S10643.174,1268.228,10640.156,1268.217Z" transform="translate(-10582.197 -1267.94)" fill="#f07203" stroke="rgba(87,40,24,0.27)" stroke-linecap="round" stroke-linejoin="round" stroke-width="1"/><path d="M10702.139,1371.916c.973-.075,3.424.973,9.709,5.163a30.366,30.366,0,0,0,11.988,4.863l-1.2-6.359a38.475,38.475,0,0,0,8.68,2.319,77.686,77.686,0,0,0,9.65.524l-1.795-1.347a25.5,25.5,0,0,0,11.97-3.142c6.659-3.442,14.89-10.624,14.89-10.624a67.611,67.611,0,0,1-17.583,1.272,37.954,37.954,0,0,1-16.759-5.312s7.383-7.777,15.351-9.149,16.372-6.263,16.372-6.263l-13.317-6.359a105.237,105.237,0,0,0,8.854-6.37c3.367-2.843,7.35-6.729,7.35-6.729l-7-.892s5.836-2.619,6.734-6.958.373-27.533.373-27.533-2.231,14.4-15.468,17.719-15.356,14.228-15.356,14.228-1.8-5.985-3.217-5.91-5.238,10.549-5.238,10.549-11.6,11.821-13.242,11.3,0-8.9,0-8.9,6.359-9.427,7.557-12.943,8.3-21.473,8.379-25.513a93.029,93.029,0,0,1-10.549,6.734c-5.432,2.891-9.5,5.636-11.6,4.339s.673-7.257,1.5-11.073,1.121-14.515,1.121-14.515l-10.848,5.986s1.2-5.686,0-8.978-2.095-3.666-2.095-3.666h-17.612S10701.293,1371.981,10702.139,1371.916Z" transform="translate(-10609.215 -1267.982)" fill="#e96000" stroke="rgba(87,40,24,0.27)" stroke-linecap="round" stroke-linejoin="round" stroke-width="0.5"/><line x2="21.69" y2="104.112" transform="translate(71.073)" fill="none" stroke="#4f280e" stroke-width="3"/><line x1="26.751" y1="23.136" transform="translate(59.505 51.333)" fill="none" stroke="#4f280e" stroke-linecap="round" stroke-width="3"/><line y1="26.028" x2="28.197" transform="translate(91.317 68.685)" fill="none" stroke="#4f280e" stroke-linecap="round" stroke-width="3"/></g></g><g transform="translate(442.944 273.074) rotate(48)"><path d="M10683.928,1268.217l-.459,8.561-5.439-4.74s-3.031,10.024-1.787,16.784,5.061,12.776,6.184,13.9-20.791-2.012-20.791-2.012,1.59,10.248,10.65,21.016,14.137,15.971,10.951,19.546-41.42-1.817-41.42-1.817,13.395,18.385,25.873,30.073,23.375,16.379,28.367,21.632a16.562,16.562,0,0,1,4.723,11.2s-15.359-.788-27.443-7.617-13.457-12.516-17.141-13.14-1.42,7.347-1.945,10.335-7.537-8.781-20.047-9.791-31.625,2.564-39.631-4.584a161.825,161.825,0,0,1-12.375-12.1s10.373,21.537,11.688,25.345,4.467,16.678,11.424,20.223a29.14,29.14,0,0,0,13.135,3.283l-10.113,7.223s11.424,4.6,17.727,5.647,17.629,2.6,17.629,2.6l-17.629,20.381s8.666,1.97,22.063,0,16.68-3.677,23.379-3.021,16.938,4.99,17.2,5.121-6.174,11.163-20.225,19.042a126.294,126.294,0,0,1-29.547,11.425s4.859,5.121,23.506,5.647,27.58-3.152,27.58-3.152l-2.1,3.152a46.308,46.308,0,0,0,16.021-8.273c7.617-6.172,11.16-9.138,11.16-9.138l2.5,11.108s8.533-4.465,14.707-15.365,11.293-16.415,13-16.547l-39.355-181.714S10689.225,1268.236,10683.928,1268.217Z" transform="translate(-10582.197 -1267.731)" fill="#f07203" stroke="rgba(87,40,24,0.27)" stroke-linecap="round" stroke-linejoin="round" stroke-width="1"/><path d="M10719.056,1450.118c1.708-.131,6.011,1.708,17.043,9.062a53.291,53.291,0,0,0,21.042,8.536l-2.1-11.162a67.542,67.542,0,0,0,15.236,4.071,136.3,136.3,0,0,0,16.938.919l-3.149-2.364s9.322.525,21.009-5.516,26.135-18.647,26.135-18.647a118.673,118.673,0,0,1-30.862,2.232,66.62,66.62,0,0,1-29.415-9.324s12.958-13.651,26.943-16.059,28.737-10.993,28.737-10.993l-23.375-11.162a184.826,184.826,0,0,0,15.541-11.181c5.91-4.99,12.9-11.811,12.9-11.811l-12.29-1.566s10.244-4.6,11.82-12.213.654-48.326.654-48.326-3.916,25.272-27.148,31.1-26.955,24.974-26.955,24.974-3.152-10.506-5.646-10.374-9.193,18.516-9.193,18.516-20.354,20.749-23.243,19.829,0-15.627,0-15.627,11.162-16.547,13.263-22.719,14.578-37.689,14.707-44.781a163.289,163.289,0,0,1-18.515,11.819c-9.535,5.075-16.683,9.892-20.354,7.617s1.181-12.739,2.626-19.436,1.968-25.477,1.968-25.477l-19.04,10.506s2.1-9.981,0-15.759-3.677-6.434-3.677-6.434h-30.914S10717.572,1450.233,10719.056,1450.118Z" transform="translate(-10555.953 -1267.69)" fill="#e96000" stroke="rgba(87,40,24,0.27)" stroke-linecap="round" stroke-linejoin="round" stroke-width="0.5"/><line x2="38.071" y2="182.741" transform="translate(124.75)" fill="none" stroke="#4f280e" stroke-width="3"/><line x1="46.954" y1="40.609" transform="translate(104.445 90.102)" fill="none" stroke="#4f280e" stroke-linecap="round" stroke-width="3"/><line y1="45.685" x2="49.492" transform="translate(160.283 120.559)" fill="none" stroke="#4f280e" stroke-linecap="round" stroke-width="3"/></g></g></svg>